<?xml version="1.0" encoding="UTF-8"?>
<!DOCTYPE svg PUBLIC "-//W3C//DTD SVG 1.1//EN" "http://www.w3.org/Graphics/SVG/1.1/DTD/svg11.dtd">
<svg xmlns="http://www.w3.org/2000/svg" version="1.1" width="320px" height="320px" style="shape-rendering:geometricPrecision; text-rendering:geometricPrecision; image-rendering:optimizeQuality; fill-rule:evenodd; clip-rule:evenodd" xmlns:xlink="http://www.w3.org/1999/xlink">
<g><path style="opacity:0.075" fill="#020202" d="M 141.5,16.5 C 193.73,11.6246 237.563,28.2913 273,66.5C 304.432,106.913 314.432,152.246 303,202.5C 284.569,264.6 243.403,300.767 179.5,311C 117.029,317.32 68.1959,294.82 33,243.5C 11.3532,205.055 6.01985,164.389 17,121.5C 36.9425,60.7987 78.4425,25.7987 141.5,16.5 Z"/></g>
<g><path style="opacity:1" fill="#fbf8f9" d="M 222.5,35.5 C 220.797,37.1408 218.63,38.1408 216,38.5C 211.866,37.2602 207.699,37.2602 203.5,38.5C 199.609,36.9197 195.609,36.0864 191.5,36C 197.391,37.6841 203.057,39.8508 208.5,42.5C 234.5,57.343 252.333,79.0096 262,107.5C 266.117,123.326 271.45,138.659 278,153.5C 278.755,157.255 278.589,160.922 277.5,164.5C 274.096,170.957 269.929,176.957 265,182.5C 264.51,181.207 264.343,179.873 264.5,178.5C 264.5,168.5 264.5,158.5 264.5,148.5C 264.179,137.673 262.679,127.006 260,116.5C 258.805,113.193 257.972,113.027 257.5,116C 261.913,131.869 263.579,148.035 262.5,164.5C 262.216,167.254 261.549,169.92 260.5,172.5C 259.004,162.881 257.837,153.214 257,143.5C 256.586,143.043 256.086,142.709 255.5,142.5C 254.669,149.142 254.169,155.809 254,162.5C 252.989,163.337 251.822,163.67 250.5,163.5C 247.205,161.314 244.371,157.981 242,153.5C 241.066,149.363 239.732,145.363 238,141.5C 238.132,147.14 238.299,152.807 238.5,158.5C 238.667,174.837 238.5,191.17 238,207.5C 235.119,207.93 232.286,207.263 229.5,205.5C 228.513,202.232 228.18,198.898 228.5,195.5C 228.827,190.456 228.494,185.456 227.5,180.5C 225.795,186.775 224.462,193.108 223.5,199.5C 221.774,199.815 220.107,199.981 218.5,200C 217.378,197.876 215.878,196.043 214,194.5C 213.819,191.305 213.319,188.305 212.5,185.5C 212.5,184.833 212.5,184.167 212.5,183.5C 211.646,174.096 211.646,164.763 212.5,155.5C 215.803,154.958 217.803,152.958 218.5,149.5C 217.567,145.277 215.234,143.944 211.5,145.5C 209.531,140.398 207.531,135.065 205.5,129.5C 205.957,128.702 206.624,128.369 207.5,128.5C 210.073,129.555 212.739,129.722 215.5,129C 218.615,126.554 221.615,124.054 224.5,121.5C 227.317,123.817 229.984,126.317 232.5,129C 241.834,130.663 246.001,126.83 245,117.5C 242.271,114.601 239.438,111.934 236.5,109.5C 239.07,106.083 241.903,102.75 245,99.5C 246.567,94.4667 245.067,90.6333 240.5,88C 238.167,87.3333 235.833,87.3333 233.5,88C 230.651,91.0162 227.651,93.8496 224.5,96.5C 221.683,94.1833 219.016,91.6833 216.5,89C 208.178,86.4712 203.845,89.6378 203.5,98.5C 196.106,82.9388 184.773,71.1055 169.5,63C 164.915,61.7748 160.248,61.2748 155.5,61.5C 149.001,56.6961 141.668,54.8628 133.5,56C 125.025,57.0757 117.359,60.0757 110.5,65C 113.695,65.1805 116.695,65.6805 119.5,66.5C 119.54,69.4245 118.707,72.0912 117,74.5C 112.592,79.0728 108.759,84.0728 105.5,89.5C 105.846,90.6956 106.346,90.6956 107,89.5C 111.122,82.9207 115.955,76.9207 121.5,71.5C 129.46,63.1896 139.127,60.0229 150.5,62C 151.381,62.7083 152.047,63.5416 152.5,64.5C 152.664,67.1873 152.497,69.854 152,72.5C 139.563,73.9696 130.896,80.303 126,91.5C 131.737,83.2134 139.57,79.7134 149.5,81C 150.966,81.6355 152.3,82.4688 153.5,83.5C 153.514,78.4942 155.847,75.1608 160.5,73.5C 169.632,72.5164 178.299,74.0164 186.5,78C 195.907,86.6373 202.407,97.1373 206,109.5C 206.428,106.678 205.928,104.012 204.5,101.5C 208.012,103.668 210.345,106.668 211.5,110.5C 206.266,113.372 203.599,117.705 203.5,123.5C 202.957,124.742 202.623,126.075 202.5,127.5C 204.158,134.127 205.491,140.794 206.5,147.5C 202.74,149.216 199.073,151.216 195.5,153.5C 191.877,152.589 191.71,151.255 195,149.5C 194.932,138.788 191.432,129.454 184.5,121.5C 179.354,112.187 171.854,105.521 162,101.5C 158.169,102.46 154.336,102.626 150.5,102C 147.629,104.215 145.463,107.049 144,110.5C 142.264,119.094 141.098,127.761 140.5,136.5C 139.189,147.821 139.189,159.154 140.5,170.5C 140.216,172.415 140.549,174.081 141.5,175.5C 142.067,182.237 143.067,188.904 144.5,195.5C 144.232,197.099 144.566,198.432 145.5,199.5C 145.5,200.833 145.5,202.167 145.5,203.5C 144.564,206.138 142.897,206.805 140.5,205.5C 138.84,206.787 137.174,208.12 135.5,209.5C 127.423,210.014 119.423,210.014 111.5,209.5C 111.768,207.901 111.434,206.568 110.5,205.5C 109.313,202.054 108.646,198.387 108.5,194.5C 107.634,182.523 107.301,170.523 107.5,158.5C 110.541,158.551 113.208,159.551 115.5,161.5C 119.676,159.979 124.009,159.145 128.5,159C 132.376,157.04 133.209,154.207 131,150.5C 130.184,149.177 129.017,148.511 127.5,148.5C 120.932,147.249 114.265,145.916 107.5,144.5C 107.167,129.833 106.833,129.833 106.5,144.5C 100.992,143.775 95.6588,143.941 90.5,145C 85.6584,148.694 85.3251,152.694 89.5,157C 94.8086,156.904 100.142,156.738 105.5,156.5C 105.572,171.507 105.905,186.507 106.5,201.5C 106.8,206.099 106.467,210.599 105.5,215C 99.5092,215.499 93.5092,215.666 87.5,215.5C 86.8902,214.609 86.5569,213.609 86.5,212.5C 84.1596,202.482 83.1596,192.315 83.5,182C 83.8153,166.72 84.982,151.553 87,136.5C 85.1327,142.698 83.7994,149.032 83,155.5C 81.8731,178.175 80.7064,200.841 79.5,223.5C 78.7811,225.091 77.7811,226.591 76.5,228C 73.1792,229.91 69.6792,231.41 66,232.5C 65.5012,228.514 65.3345,224.514 65.5,220.5C 65.5,208.167 65.5,195.833 65.5,183.5C 66.3104,171.488 67.3104,159.488 68.5,147.5C 68.1667,146.5 67.8333,145.5 67.5,144.5C 66.3453,148.427 65.512,152.427 65,156.5C 64.5002,165.494 64.3336,174.494 64.5,183.5C 64.5,184.167 64.5,184.833 64.5,185.5C 63.1115,190.652 61.9448,195.986 61,201.5C 59.2006,205.07 57.7006,208.737 56.5,212.5C 53.9406,217.62 51.9406,222.953 50.5,228.5C 49.8826,228.611 49.3826,228.944 49,229.5C 45.435,225.328 44.2683,220.661 45.5,215.5C 45.526,210.733 46.1927,206.066 47.5,201.5C 49.5848,199.316 50.5848,196.649 50.5,193.5C 51.475,190.933 52.1417,188.267 52.5,185.5C 56.2035,173.148 58.7035,160.482 60,147.5C 58.7177,151.84 57.5511,156.173 56.5,160.5C 54.8916,163.21 53.7249,166.21 53,169.5C 52.0513,171.093 50.8846,172.426 49.5,173.5C 47.7575,156.192 48.7575,139.192 52.5,122.5C 54.8217,129.581 59.4883,131.415 66.5,128C 68.2331,124.64 70.8997,122.473 74.5,121.5C 76.6281,124.13 78.9614,126.63 81.5,129C 90.6667,130.5 94.5,126.667 93,117.5C 90.295,114.964 87.795,112.297 85.5,109.5C 87.3883,106.101 89.8883,103.101 93,100.5C 95.5734,92.5803 92.74,88.2469 84.5,87.5C 79.8816,89.8245 75.8816,92.8245 72.5,96.5C 69.1385,94.1051 66.4719,91.1051 64.5,87.5C 71.8814,71.1243 82.8814,57.791 97.5,47.5C 101.186,45.7673 104.852,43.934 108.5,42C 102.179,42.485 96.0124,42.985 90,43.5C 89.2496,42.8742 88.4162,42.3742 87.5,42C 88.756,41.5831 89.4226,40.7498 89.5,39.5C 122.741,20.6977 158.075,15.8644 195.5,25C 204.927,27.6378 213.927,31.1378 222.5,35.5 Z"/></g>
<g><path style="opacity:1" fill="#82858b" d="M 203.5,38.5 C 205.5,39.5 207.5,40.5 209.5,41.5C 208.833,41.5 208.5,41.8333 208.5,42.5C 203.057,39.8508 197.391,37.6841 191.5,36C 195.609,36.0864 199.609,36.9197 203.5,38.5 Z"/></g>
<g><path style="opacity:1" fill="#323946" d="M 208.5,42.5 C 208.5,41.8333 208.833,41.5 209.5,41.5C 233.511,51.4914 252.845,67.1581 267.5,88.5C 274.721,99.2766 280.054,110.943 283.5,123.5C 283.5,148.833 283.5,174.167 283.5,199.5C 280.167,195.5 276.833,191.5 273.5,187.5C 273.167,187.5 272.833,187.5 272.5,187.5C 274.325,179.867 275.992,172.2 277.5,164.5C 278.589,160.922 278.755,157.255 278,153.5C 271.45,138.659 266.117,123.326 262,107.5C 252.333,79.0096 234.5,57.343 208.5,42.5 Z"/></g>
<g><path style="opacity:1" fill="#ebedee" d="M 222.5,35.5 C 245.713,46.9168 264.046,63.5835 277.5,85.5C 277.5,86.5 277.5,87.5 277.5,88.5C 273.652,87.882 270.319,87.882 267.5,88.5C 252.845,67.1581 233.511,51.4914 209.5,41.5C 207.5,40.5 205.5,39.5 203.5,38.5C 207.699,37.2602 211.866,37.2602 216,38.5C 218.63,38.1408 220.797,37.1408 222.5,35.5 Z"/></g>
<g><path style="opacity:1" fill="#9d7a87" d="M 155.5,61.5 C 155.5,61.8333 155.5,62.1667 155.5,62.5C 155.651,67.6139 154.651,68.2806 152.5,64.5C 152.047,63.5416 151.381,62.7083 150.5,62C 139.127,60.0229 129.46,63.1896 121.5,71.5C 120.833,69.8333 120.167,68.1667 119.5,66.5C 116.695,65.6805 113.695,65.1805 110.5,65C 117.359,60.0757 125.025,57.0757 133.5,56C 141.668,54.8628 149.001,56.6961 155.5,61.5 Z"/></g>
<g><path style="opacity:1" fill="#323946" d="M 97.5,47.5 C 82.8814,57.791 71.8814,71.1243 64.5,87.5C 64.1667,87.5 63.8333,87.5 63.5,87.5C 51.7274,89.1609 49.394,94.8276 56.5,104.5C 55.1876,108.416 54.1876,112.416 53.5,116.5C 52.6586,118.379 52.3253,120.379 52.5,122.5C 48.7575,139.192 47.7575,156.192 49.5,173.5C 50.3242,176.764 50.6576,180.098 50.5,183.5C 50.5,184.833 51.1667,185.5 52.5,185.5C 52.1417,188.267 51.475,190.933 50.5,193.5C 46.8333,198.833 43.1667,204.167 39.5,209.5C 37.6304,204.558 35.9638,199.558 34.5,194.5C 34.5,172.167 34.5,149.833 34.5,127.5C 37.9326,114.875 42.9326,102.875 49.5,91.5C 62.0146,72.9835 78.0146,58.3168 97.5,47.5 Z"/></g>
<g><path style="opacity:1" fill="#d0bcc3" d="M 155.5,62.5 C 155.5,62.1667 155.5,61.8333 155.5,61.5C 160.248,61.2748 164.915,61.7748 169.5,63C 184.773,71.1055 196.106,82.9388 203.5,98.5C 204.11,99.391 204.443,100.391 204.5,101.5C 205.928,104.012 206.428,106.678 206,109.5C 202.407,97.1373 195.907,86.6373 186.5,78C 178.299,74.0164 169.632,72.5164 160.5,73.5C 161.793,70.5433 163.126,67.5433 164.5,64.5C 164.291,63.914 163.957,63.414 163.5,63C 160.854,62.5026 158.187,62.3359 155.5,62.5 Z"/></g>
<g><path style="opacity:1" fill="#bfa3ac" d="M 155.5,62.5 C 158.187,62.3359 160.854,62.5026 163.5,63C 163.957,63.414 164.291,63.914 164.5,64.5C 163.126,67.5433 161.793,70.5433 160.5,73.5C 155.847,75.1608 153.514,78.4942 153.5,83.5C 152.3,82.4688 150.966,81.6355 149.5,81C 139.57,79.7134 131.737,83.2134 126,91.5C 130.896,80.303 139.563,73.9696 152,72.5C 152.497,69.854 152.664,67.1873 152.5,64.5C 154.651,68.2806 155.651,67.6139 155.5,62.5 Z"/></g>
<g><path style="opacity:1" fill="#e7ebeb" d="M 89.5,39.5 C 89.4226,40.7498 88.756,41.5831 87.5,42C 88.4162,42.3742 89.2496,42.8742 90,43.5C 96.0124,42.985 102.179,42.485 108.5,42C 104.852,43.934 101.186,45.7673 97.5,47.5C 78.0146,58.3168 62.0146,72.9835 49.5,91.5C 46.3491,91.6472 43.1825,91.9805 40,92.5C 39.51,91.2068 39.3433,89.8734 39.5,88.5C 51.8823,67.7843 68.549,51.4509 89.5,39.5 Z"/></g>
<g><path style="opacity:1" fill="#cabbc2" d="M 119.5,66.5 C 120.167,68.1667 120.833,69.8333 121.5,71.5C 115.955,76.9207 111.122,82.9207 107,89.5C 106.346,90.6956 105.846,90.6956 105.5,89.5C 108.759,84.0728 112.592,79.0728 117,74.5C 118.707,72.0912 119.54,69.4245 119.5,66.5 Z"/></g>
<g><path style="opacity:1" fill="#7c4751" d="M 63.5,87.5 C 60.6377,92.8853 58.6377,98.552 57.5,104.5C 57.1667,104.5 56.8333,104.5 56.5,104.5C 49.394,94.8276 51.7274,89.1609 63.5,87.5 Z"/></g>
<g><path style="opacity:1" fill="#fea6a6" d="M 85.5,109.5 C 80.4084,112.256 76.7417,116.256 74.5,121.5C 70.8997,122.473 68.2331,124.64 66.5,128C 59.4883,131.415 54.8217,129.581 52.5,122.5C 52.3253,120.379 52.6586,118.379 53.5,116.5C 56.9492,114.059 59.6159,111.059 61.5,107.5C 66.1667,104.833 69.8333,101.167 72.5,96.5C 75.8816,92.8245 79.8816,89.8245 84.5,87.5C 92.74,88.2469 95.5734,92.5803 93,100.5C 89.8883,103.101 87.3883,106.101 85.5,109.5 Z"/></g>
<g><path style="opacity:1" fill="#6086a0" d="M 236.5,109.5 C 236.167,109.5 235.833,109.5 235.5,109.5C 232.586,104.915 228.92,100.915 224.5,97.5C 220.479,100.854 216.812,104.521 213.5,108.5C 212.833,109.167 212.167,109.833 211.5,110.5C 210.345,106.668 208.012,103.668 204.5,101.5C 204.443,100.391 204.11,99.391 203.5,98.5C 203.845,89.6378 208.178,86.4712 216.5,89C 219.016,91.6833 221.683,94.1833 224.5,96.5C 227.651,93.8496 230.651,91.0162 233.5,88C 235.833,87.3333 238.167,87.3333 240.5,88C 245.067,90.6333 246.567,94.4667 245,99.5C 241.903,102.75 239.07,106.083 236.5,109.5 Z"/></g>
<g><path style="opacity:1" fill="#fb8486" d="M 63.5,87.5 C 63.8333,87.5 64.1667,87.5 64.5,87.5C 66.4719,91.1051 69.1385,94.1051 72.5,96.5C 69.8333,101.167 66.1667,104.833 61.5,107.5C 59.5695,107.229 58.2362,106.229 57.5,104.5C 58.6377,98.552 60.6377,92.8853 63.5,87.5 Z"/></g>
<g><path style="opacity:1" fill="#2f3845" d="M 235.5,109.5 C 231.521,112.812 227.854,116.479 224.5,120.5C 220.08,117.085 216.414,113.085 213.5,108.5C 216.812,104.521 220.479,100.854 224.5,97.5C 228.92,100.915 232.586,104.915 235.5,109.5 Z"/></g>
<g><path style="opacity:1" fill="#fcf9f9" d="M 171.5,134.5 C 171.664,137.187 171.497,139.854 171,142.5C 169.589,148.225 168.089,153.892 166.5,159.5C 162.715,166.706 157.715,173.04 151.5,178.5C 148.842,175.194 146.676,171.527 145,167.5C 143.123,159.268 142.29,150.935 142.5,142.5C 142.5,141.167 142.5,139.833 142.5,138.5C 145.395,130.3 148.562,122.3 152,114.5C 147.946,119.942 144.946,125.942 143,132.5C 142.105,123.352 143.939,114.852 148.5,107C 153.676,104.696 158.343,105.53 162.5,109.5C 162.937,107.405 161.937,105.738 159.5,104.5C 162.101,102.053 164.601,102.386 167,105.5C 170.935,114.766 172.435,124.433 171.5,134.5 Z"/></g>
<g><path style="opacity:1" fill="#f3ebec" d="M 56.5,104.5 C 56.8333,104.5 57.1667,104.5 57.5,104.5C 58.2362,106.229 59.5695,107.229 61.5,107.5C 59.6159,111.059 56.9492,114.059 53.5,116.5C 54.1876,112.416 55.1876,108.416 56.5,104.5 Z"/></g>
<g><path style="opacity:1" fill="#fbf8f9" d="M 184.5,121.5 C 189.336,129.502 192.336,138.168 193.5,147.5C 192.5,147.5 191.5,147.5 190.5,147.5C 185.685,146.84 181.851,144.506 179,140.5C 176.248,135.734 174.414,130.734 173.5,125.5C 172.528,118.987 171.361,112.654 170,106.5C 175.064,111.395 179.897,116.395 184.5,121.5 Z"/></g>
<g><path style="opacity:1" fill="#3d4557" d="M 213.5,108.5 C 216.414,113.085 220.08,117.085 224.5,120.5C 227.854,116.479 231.521,112.812 235.5,109.5C 235.833,109.5 236.167,109.5 236.5,109.5C 239.438,111.934 242.271,114.601 245,117.5C 246.001,126.83 241.834,130.663 232.5,129C 229.984,126.317 227.317,123.817 224.5,121.5C 221.615,124.054 218.615,126.554 215.5,129C 212.739,129.722 210.073,129.555 207.5,128.5C 205.464,127.374 204.13,125.707 203.5,123.5C 203.599,117.705 206.266,113.372 211.5,110.5C 212.167,109.833 212.833,109.167 213.5,108.5 Z"/></g>
<g><path style="opacity:0.999" fill="#d7dedf" d="M 39.5,88.5 C 39.3433,89.8734 39.51,91.2068 40,92.5C 43.1825,91.9805 46.3491,91.6472 49.5,91.5C 42.9326,102.875 37.9326,114.875 34.5,127.5C 30.1124,143.107 28.7791,159.107 30.5,175.5C 27.8607,174.808 25.1941,175.141 22.5,176.5C 21.1993,174.556 20.1993,172.556 19.5,170.5C 17.1705,140.775 23.8372,113.442 39.5,88.5 Z"/></g>
<g><path style="opacity:1" fill="#fe8689" d="M 85.5,109.5 C 87.795,112.297 90.295,114.964 93,117.5C 94.5,126.667 90.6667,130.5 81.5,129C 78.9614,126.63 76.6281,124.13 74.5,121.5C 76.7417,116.256 80.4084,112.256 85.5,109.5 Z"/></g>
<g><path style="opacity:1" fill="#ded0d4" d="M 264.5,148.5 C 263.512,153.64 263.179,158.974 263.5,164.5C 263.167,164.5 262.833,164.5 262.5,164.5C 263.579,148.035 261.913,131.869 257.5,116C 257.972,113.027 258.805,113.193 260,116.5C 262.679,127.006 264.179,137.673 264.5,148.5 Z"/></g>
<g><path style="opacity:1" fill="#bda2aa" d="M 203.5,123.5 C 204.13,125.707 205.464,127.374 207.5,128.5C 206.624,128.369 205.957,128.702 205.5,129.5C 207.531,135.065 209.531,140.398 211.5,145.5C 210.07,146.537 208.403,147.204 206.5,147.5C 205.491,140.794 204.158,134.127 202.5,127.5C 202.623,126.075 202.957,124.742 203.5,123.5 Z"/></g>
<g><path style="opacity:1" fill="#fdfefe" d="M 284.5,126.5 C 287.423,134.762 288.923,143.428 289,152.5C 289.558,160.515 289.391,168.515 288.5,176.5C 287.937,182.941 286.77,189.275 285,195.5C 284.5,172.502 284.333,149.502 284.5,126.5 Z"/></g>
<g><path style="opacity:1" fill="#fcfdfd" d="M 34.5,127.5 C 34.5,149.833 34.5,172.167 34.5,194.5C 32.2515,188.484 30.9182,182.15 30.5,175.5C 28.7791,159.107 30.1124,143.107 34.5,127.5 Z"/></g>
<g><path style="opacity:1" fill="#c3adb5" d="M 184.5,121.5 C 179.897,116.395 175.064,111.395 170,106.5C 171.361,112.654 172.528,118.987 173.5,125.5C 172.833,128.5 172.167,131.5 171.5,134.5C 172.435,124.433 170.935,114.766 167,105.5C 164.601,102.386 162.101,102.053 159.5,104.5C 161.937,105.738 162.937,107.405 162.5,109.5C 158.343,105.53 153.676,104.696 148.5,107C 143.939,114.852 142.105,123.352 143,132.5C 144.946,125.942 147.946,119.942 152,114.5C 148.562,122.3 145.395,130.3 142.5,138.5C 142.66,136.801 142.494,135.134 142,133.5C 141.768,134.737 141.268,135.737 140.5,136.5C 141.098,127.761 142.264,119.094 144,110.5C 145.463,107.049 147.629,104.215 150.5,102C 154.336,102.626 158.169,102.46 162,101.5C 171.854,105.521 179.354,112.187 184.5,121.5 Z"/></g>
<g><path style="opacity:1" fill="#d5ddde" d="M 277.5,85.5 C 295.086,111.392 302.419,140.059 299.5,171.5C 298.691,173.292 298.191,175.292 298,177.5C 297.16,174.536 296.16,174.203 295,176.5C 292.837,175.232 290.67,175.232 288.5,176.5C 289.391,168.515 289.558,160.515 289,152.5C 288.923,143.428 287.423,134.762 284.5,126.5C 284.737,125.209 284.404,124.209 283.5,123.5C 280.054,110.943 274.721,99.2766 267.5,88.5C 270.319,87.882 273.652,87.882 277.5,88.5C 277.5,87.5 277.5,86.5 277.5,85.5 Z"/></g>
<g><path style="opacity:1" fill="#9a7c87" d="M 142.5,138.5 C 142.5,139.833 142.5,141.167 142.5,142.5C 141.833,151.833 141.167,161.167 140.5,170.5C 139.189,159.154 139.189,147.821 140.5,136.5C 141.268,135.737 141.768,134.737 142,133.5C 142.494,135.134 142.66,136.801 142.5,138.5 Z"/></g>
<g><path style="opacity:1" fill="#74636e" d="M 173.5,125.5 C 174.414,130.734 176.248,135.734 179,140.5C 181.851,144.506 185.685,146.84 190.5,147.5C 190.672,148.492 190.338,149.158 189.5,149.5C 183.692,147.202 178.859,143.535 175,138.5C 172.614,145.746 169.781,152.746 166.5,159.5C 168.089,153.892 169.589,148.225 171,142.5C 171.497,139.854 171.664,137.187 171.5,134.5C 172.167,131.5 172.833,128.5 173.5,125.5 Z"/></g>
<g><path style="opacity:1" fill="#b5a1aa" d="M 127.5,148.5 C 129.017,148.511 130.184,149.177 131,150.5C 133.209,154.207 132.376,157.04 128.5,159C 124.009,159.145 119.676,159.979 115.5,161.5C 113.208,159.551 110.541,158.551 107.5,158.5C 107.301,170.523 107.634,182.523 108.5,194.5C 107.532,196.607 107.198,198.941 107.5,201.5C 107.167,201.5 106.833,201.5 106.5,201.5C 105.905,186.507 105.572,171.507 105.5,156.5C 100.142,156.738 94.8086,156.904 89.5,157C 85.3251,152.694 85.6584,148.694 90.5,145C 95.6588,143.941 100.992,143.775 106.5,144.5C 106.833,129.833 107.167,129.833 107.5,144.5C 114.265,145.916 120.932,147.249 127.5,148.5 Z"/></g>
<g><path style="opacity:1" fill="#b9a2aa" d="M 184.5,121.5 C 191.432,129.454 194.932,138.788 195,149.5C 191.71,151.255 191.877,152.589 195.5,153.5C 194.486,154.674 193.153,155.34 191.5,155.5C 191.88,153.302 191.213,151.635 189.5,150.5C 189.5,150.167 189.5,149.833 189.5,149.5C 190.338,149.158 190.672,148.492 190.5,147.5C 191.5,147.5 192.5,147.5 193.5,147.5C 192.336,138.168 189.336,129.502 184.5,121.5 Z"/></g>
<g><path style="opacity:1" fill="#faf5f6" d="M 91.5,145.5 C 99.5471,145.277 107.547,145.777 115.5,147C 120.434,149.665 121.601,153.498 119,158.5C 117.333,159.833 115.667,159.833 114,158.5C 112.335,155.487 111.168,152.32 110.5,149C 106.514,148.501 102.514,148.334 98.5,148.5C 98.7565,155.03 95.7565,157.197 89.5,155C 87.8614,151.327 88.5281,148.16 91.5,145.5 Z"/></g>
<g><path style="opacity:1" fill="#373c4a" d="M 212.5,155.5 C 209.669,156.079 207.336,157.412 205.5,159.5C 201.698,161.054 197.698,162.054 193.5,162.5C 191.837,160.562 191.171,158.228 191.5,155.5C 193.153,155.34 194.486,154.674 195.5,153.5C 199.073,151.216 202.74,149.216 206.5,147.5C 208.403,147.204 210.07,146.537 211.5,145.5C 215.234,143.944 217.567,145.277 218.5,149.5C 217.803,152.958 215.803,154.958 212.5,155.5 Z"/></g>
<g><path style="opacity:1" fill="#f8f5f6" d="M 127.5,148.5 C 132.685,155.434 131.018,158.267 122.5,157C 121.833,154.667 121.167,152.333 120.5,150C 122.677,148.798 125.011,148.298 127.5,148.5 Z"/></g>
<g><path style="opacity:1" fill="#99747f" d="M 250.5,163.5 C 251.501,166.172 252.501,168.838 253.5,171.5C 252.427,172.251 252.26,173.251 253,174.5C 256.013,178.855 258.18,183.522 259.5,188.5C 258.5,188.5 257.5,188.5 256.5,188.5C 256.768,186.901 256.434,185.568 255.5,184.5C 255.047,178.717 252.047,175.05 246.5,173.5C 241.476,174.864 239.476,178.197 240.5,183.5C 240.5,189.833 240.5,196.167 240.5,202.5C 240.5,206.5 240.5,210.5 240.5,214.5C 239.567,224.833 238.567,235.167 237.5,245.5C 237.511,247.045 237.844,248.378 238.5,249.5C 238.21,252.127 236.876,253.794 234.5,254.5C 235.686,248.9 236.353,243.233 236.5,237.5C 239.541,211.225 240.208,184.892 238.5,158.5C 238.299,152.807 238.132,147.14 238,141.5C 239.732,145.363 241.066,149.363 242,153.5C 244.371,157.981 247.205,161.314 250.5,163.5 Z"/></g>
<g><path style="opacity:1" fill="#f6eef0" d="M 205.5,159.5 C 206.5,159.5 207.5,159.5 208.5,159.5C 210.614,166.189 210.948,172.855 209.5,179.5C 207.846,173.704 205.513,168.204 202.5,163C 203.071,161.401 204.071,160.234 205.5,159.5 Z"/></g>
<g><path style="opacity:1" fill="#bf8d94" d="M 142.5,142.5 C 142.29,150.935 143.123,159.268 145,167.5C 146.676,171.527 148.842,175.194 151.5,178.5C 150.833,179.5 150.167,180.5 149.5,181.5C 147.956,181.703 146.622,182.37 145.5,183.5C 143.191,179.882 142.024,175.882 142,171.5C 141.51,172.793 141.343,174.127 141.5,175.5C 140.549,174.081 140.216,172.415 140.5,170.5C 141.167,161.167 141.833,151.833 142.5,142.5 Z"/></g>
<g><path style="opacity:1" fill="#7e7983" d="M 52.5,185.5 C 51.1667,185.5 50.5,184.833 50.5,183.5C 51.5862,183.38 52.2528,182.713 52.5,181.5C 54.3158,174.574 55.6491,167.574 56.5,160.5C 57.5511,156.173 58.7177,151.84 60,147.5C 58.7035,160.482 56.2035,173.148 52.5,185.5 Z"/></g>
<g><path style="opacity:1" fill="#d2a4a2" d="M 189.5,149.5 C 189.5,149.833 189.5,150.167 189.5,150.5C 186.148,149.992 183.148,148.658 180.5,146.5C 178.578,153.011 175.578,159.011 171.5,164.5C 175.713,164.563 180.046,164.729 184.5,165C 185.737,165.232 186.737,165.732 187.5,166.5C 189.176,167.183 189.843,168.517 189.5,170.5C 182.159,170.334 174.826,170.5 167.5,171C 162.032,177.469 156.199,183.636 150,189.5C 148.603,194.708 148.103,200.041 148.5,205.5C 147.379,203.046 146.546,200.379 146,197.5C 145.536,198.094 145.369,198.761 145.5,199.5C 144.566,198.432 144.232,197.099 144.5,195.5C 145.319,192.695 145.819,189.695 146,186.5C 147.376,185.295 148.542,183.962 149.5,182.5C 157.889,176.787 163.556,169.12 166.5,159.5C 169.781,152.746 172.614,145.746 175,138.5C 178.859,143.535 183.692,147.202 189.5,149.5 Z"/></g>
<g><path style="opacity:1" fill="#f7f1f2" d="M 187.5,166.5 C 187.804,167.15 188.137,167.817 188.5,168.5C 181.524,169.664 174.524,169.831 167.5,169C 168.623,167.956 169.956,167.29 171.5,167C 176.823,166.501 182.156,166.334 187.5,166.5 Z"/></g>
<g><path style="opacity:1" fill="#7c6b73" d="M 166.5,159.5 C 163.556,169.12 157.889,176.787 149.5,182.5C 149.5,182.167 149.5,181.833 149.5,181.5C 150.167,180.5 150.833,179.5 151.5,178.5C 157.715,173.04 162.715,166.706 166.5,159.5 Z"/></g>
<g><path style="opacity:1" fill="#dac6cb" d="M 65.5,183.5 C 65.1667,183.5 64.8333,183.5 64.5,183.5C 64.3336,174.494 64.5002,165.494 65,156.5C 65.512,152.427 66.3453,148.427 67.5,144.5C 67.8333,145.5 68.1667,146.5 68.5,147.5C 67.3104,159.488 66.3104,171.488 65.5,183.5 Z"/></g>
<g><path style="opacity:1" fill="#d7c3c7" d="M 56.5,160.5 C 55.6491,167.574 54.3158,174.574 52.5,181.5C 52.2528,182.713 51.5862,183.38 50.5,183.5C 50.6576,180.098 50.3242,176.764 49.5,173.5C 50.8846,172.426 52.0513,171.093 53,169.5C 53.7249,166.21 54.8916,163.21 56.5,160.5 Z"/></g>
<g><path style="opacity:1" fill="#be9ea6" d="M 262.5,164.5 C 262.833,164.5 263.167,164.5 263.5,164.5C 263.666,168.514 263.499,172.514 263,176.5C 262.83,178.715 262.163,180.715 261,182.5C 260.158,178.131 259.158,173.797 258,169.5C 258.356,178.823 256.856,179.489 253.5,171.5C 252.501,168.838 251.501,166.172 250.5,163.5C 251.822,163.67 252.989,163.337 254,162.5C 254.169,155.809 254.669,149.142 255.5,142.5C 256.086,142.709 256.586,143.043 257,143.5C 257.837,153.214 259.004,162.881 260.5,172.5C 261.549,169.92 262.216,167.254 262.5,164.5 Z"/></g>
<g><path style="opacity:1" fill="#b49da6" d="M 212.5,155.5 C 211.646,164.763 211.646,174.096 212.5,183.5C 211.026,182.564 210.026,181.23 209.5,179.5C 210.948,172.855 210.614,166.189 208.5,159.5C 207.5,159.5 206.5,159.5 205.5,159.5C 207.336,157.412 209.669,156.079 212.5,155.5 Z"/></g>
<g><path style="opacity:1" fill="#ceadb2" d="M 277.5,164.5 C 275.992,172.2 274.325,179.867 272.5,187.5C 269.352,192.74 266.852,198.406 265,204.5C 264.667,204.833 264.333,205.167 264,205.5C 263.517,204.552 263.351,203.552 263.5,202.5C 263.5,198.167 263.5,193.833 263.5,189.5C 263.185,185.629 263.518,181.962 264.5,178.5C 264.343,179.873 264.51,181.207 265,182.5C 269.929,176.957 274.096,170.957 277.5,164.5 Z"/></g>
<g><path style="opacity:1" fill="#4c4451" d="M 149.5,181.5 C 149.5,181.833 149.5,182.167 149.5,182.5C 148.542,183.962 147.376,185.295 146,186.5C 145.819,189.695 145.319,192.695 144.5,195.5C 143.067,188.904 142.067,182.237 141.5,175.5C 141.343,174.127 141.51,172.793 142,171.5C 142.024,175.882 143.191,179.882 145.5,183.5C 146.622,182.37 147.956,181.703 149.5,181.5 Z"/></g>
<g><path style="opacity:1" fill="#796b75" d="M 205.5,159.5 C 204.071,160.234 203.071,161.401 202.5,163C 205.513,168.204 207.846,173.704 209.5,179.5C 210.026,181.23 211.026,182.564 212.5,183.5C 212.5,184.167 212.5,184.833 212.5,185.5C 212.5,187.5 212.5,189.5 212.5,191.5C 211.5,189.5 210.5,187.5 209.5,185.5C 208.363,177.231 205.03,170.065 199.5,164C 197.292,163.809 195.292,163.309 193.5,162.5C 197.698,162.054 201.698,161.054 205.5,159.5 Z"/></g>
<g><path style="opacity:1" fill="#d19997" d="M 240.5,202.5 C 240.5,196.167 240.5,189.833 240.5,183.5C 242.848,181.32 245.348,179.32 248,177.5C 251.71,179.08 253.543,181.913 253.5,186C 252.65,192.523 249.65,197.856 244.5,202C 243.207,202.49 241.873,202.657 240.5,202.5 Z"/></g>
<g><path style="opacity:1" fill="#76616d" d="M 264.5,148.5 C 264.5,158.5 264.5,168.5 264.5,178.5C 263.518,181.962 263.185,185.629 263.5,189.5C 262.686,191.631 262.186,193.964 262,196.5C 261.721,193.543 260.887,190.877 259.5,188.5C 258.18,183.522 256.013,178.855 253,174.5C 252.26,173.251 252.427,172.251 253.5,171.5C 256.856,179.489 258.356,178.823 258,169.5C 259.158,173.797 260.158,178.131 261,182.5C 262.163,180.715 262.83,178.715 263,176.5C 263.499,172.514 263.666,168.514 263.5,164.5C 263.179,158.974 263.512,153.64 264.5,148.5 Z"/></g>
<g><path style="opacity:1" fill="#d7bdc1" d="M 228.5,195.5 C 227.681,198.305 227.181,201.305 227,204.5C 223.11,210.329 220.276,216.662 218.5,223.5C 217.833,224.5 217.167,225.5 216.5,226.5C 216.167,226.5 215.833,226.5 215.5,226.5C 219.243,217.871 221.909,208.871 223.5,199.5C 224.462,193.108 225.795,186.775 227.5,180.5C 228.494,185.456 228.827,190.456 228.5,195.5 Z"/></g>
<g><path style="opacity:1" fill="#6e5b66" d="M 272.5,187.5 C 272.833,187.5 273.167,187.5 273.5,187.5C 270.37,193.89 268.037,200.556 266.5,207.5C 264.603,209.698 263.603,212.364 263.5,215.5C 262.167,211.167 262.167,206.833 263.5,202.5C 263.351,203.552 263.517,204.552 264,205.5C 264.333,205.167 264.667,204.833 265,204.5C 266.852,198.406 269.352,192.74 272.5,187.5 Z"/></g>
<g><path style="opacity:0.999" fill="#c7cbcc" d="M 283.5,123.5 C 284.404,124.209 284.737,125.209 284.5,126.5C 284.333,149.502 284.5,172.502 285,195.5C 286.77,189.275 287.937,182.941 288.5,176.5C 290.67,175.232 292.837,175.232 295,176.5C 296.16,174.203 297.16,174.536 298,177.5C 298.191,175.292 298.691,173.292 299.5,171.5C 297.375,200.896 287.042,226.896 268.5,249.5C 267.849,248.909 267.182,248.243 266.5,247.5C 265.914,247.709 265.414,248.043 265,248.5C 262.876,247.773 260.709,247.106 258.5,246.5C 256.517,247.982 254.684,249.649 253,251.5C 252.617,250.944 252.117,250.611 251.5,250.5C 250.833,248.5 250.167,246.5 249.5,244.5C 249.917,243.876 250.584,243.543 251.5,243.5C 253.853,244.351 256.187,244.851 258.5,245C 261.964,240.559 265.298,236.059 268.5,231.5C 275.051,222.404 279.385,212.404 281.5,201.5C 282.833,201.5 283.5,200.833 283.5,199.5C 283.5,174.167 283.5,148.833 283.5,123.5 Z"/></g>
<g><path style="opacity:1" fill="#cca8ad" d="M 273.5,187.5 C 276.833,191.5 280.167,195.5 283.5,199.5C 283.5,200.833 282.833,201.5 281.5,201.5C 278.269,196.566 274.436,196.233 270,200.5C 268.968,202.994 267.802,205.328 266.5,207.5C 268.037,200.556 270.37,193.89 273.5,187.5 Z"/></g>
<g><path style="opacity:1" fill="#fae7e7" d="M 212.5,185.5 C 213.319,188.305 213.819,191.305 214,194.5C 215.878,196.043 217.378,197.876 218.5,200C 220.107,199.981 221.774,199.815 223.5,199.5C 221.909,208.871 219.243,217.871 215.5,226.5C 211.762,232.412 207.429,237.912 202.5,243C 196.993,246.734 191.326,247.234 185.5,244.5C 184.972,243.153 184.805,241.819 185,240.5C 188.523,244.699 192.356,245.199 196.5,242C 199.923,238.762 202.257,234.929 203.5,230.5C 210.358,218.549 213.358,205.549 212.5,191.5C 212.5,189.5 212.5,187.5 212.5,185.5 Z"/></g>
<g><path style="opacity:1" fill="#b69fa0" d="M 209.5,185.5 C 210.5,187.5 211.5,189.5 212.5,191.5C 213.358,205.549 210.358,218.549 203.5,230.5C 207.818,219.884 210.485,208.884 211.5,197.5C 211.042,193.462 210.376,189.462 209.5,185.5 Z"/></g>
<g><path style="opacity:1" fill="#f7dbd2" d="M 255.5,184.5 C 255.737,188.273 255.237,191.94 254,195.5C 251.729,200.38 249.229,205.046 246.5,209.5C 244.5,211.167 242.5,212.833 240.5,214.5C 240.5,210.5 240.5,206.5 240.5,202.5C 241.873,202.657 243.207,202.49 244.5,202C 249.65,197.856 252.65,192.523 253.5,186C 253.543,181.913 251.71,179.08 248,177.5C 245.348,179.32 242.848,181.32 240.5,183.5C 239.476,178.197 241.476,174.864 246.5,173.5C 252.047,175.05 255.047,178.717 255.5,184.5 Z"/></g>
<g><path style="opacity:1" fill="#fbf2f2" d="M 281.5,201.5 C 279.385,212.404 275.051,222.404 268.5,231.5C 266.418,231.528 264.584,230.861 263,229.5C 262.283,224.78 262.45,220.114 263.5,215.5C 263.603,212.364 264.603,209.698 266.5,207.5C 267.802,205.328 268.968,202.994 270,200.5C 274.436,196.233 278.269,196.566 281.5,201.5 Z"/></g>
<g><path style="opacity:1" fill="#c6a8af" d="M 86.5,212.5 C 85.8333,212.5 85.5,212.833 85.5,213.5C 84.5326,212.194 83.1993,211.527 81.5,211.5C 80.8532,228.826 80.5198,246.159 80.5,263.5C 80.1667,263.5 79.8333,263.5 79.5,263.5C 79.5,250.167 79.5,236.833 79.5,223.5C 80.7064,200.841 81.8731,178.175 83,155.5C 83.7994,149.032 85.1327,142.698 87,136.5C 84.982,151.553 83.8153,166.72 83.5,182C 83.1596,192.315 84.1596,202.482 86.5,212.5 Z"/></g>
<g><path style="opacity:1" fill="#c4999f" d="M 255.5,184.5 C 256.434,185.568 256.768,186.901 256.5,188.5C 257.5,188.5 258.5,188.5 259.5,188.5C 260.887,190.877 261.721,193.543 262,196.5C 262.186,193.964 262.686,191.631 263.5,189.5C 263.5,193.833 263.5,198.167 263.5,202.5C 262.167,206.833 262.167,211.167 263.5,215.5C 262.45,220.114 262.283,224.78 263,229.5C 264.584,230.861 266.418,231.528 268.5,231.5C 265.298,236.059 261.964,240.559 258.5,245C 256.187,244.851 253.853,244.351 251.5,243.5C 250.584,243.543 249.917,243.876 249.5,244.5C 247.221,238.983 247.054,233.316 249,227.5C 251.762,222.739 254.929,222.406 258.5,226.5C 259.584,227.665 260.417,228.998 261,230.5C 262.007,225.706 261.84,223.706 260.5,224.5C 255.467,222.973 251.467,219.973 248.5,215.5C 247.27,213.703 246.604,211.703 246.5,209.5C 249.229,205.046 251.729,200.38 254,195.5C 255.237,191.94 255.737,188.273 255.5,184.5 Z"/></g>
<g><path style="opacity:1" fill="#78737d" d="M 50.5,193.5 C 50.5848,196.649 49.5848,199.316 47.5,201.5C 44.4598,204.914 42.4598,208.914 41.5,213.5C 40.6554,212.329 39.9887,210.995 39.5,209.5C 43.1667,204.167 46.8333,198.833 50.5,193.5 Z"/></g>
<g><path style="opacity:1" fill="#473a46" d="M 182.5,193.5 C 190.181,193.368 197.181,195.368 203.5,199.5C 203.5,200.833 203.5,202.167 203.5,203.5C 202.209,203.263 201.209,203.596 200.5,204.5C 199.521,203.235 198.521,201.901 197.5,200.5C 190.98,198.748 184.98,199.748 179.5,203.5C 179.5,203.167 179.5,202.833 179.5,202.5C 179.325,200.379 179.659,198.379 180.5,196.5C 181.5,196.167 182.167,195.5 182.5,194.5C 182.5,194.167 182.5,193.833 182.5,193.5 Z"/></g>
<g><path style="opacity:1" fill="#775357" d="M 180.5,196.5 C 179.659,198.379 179.325,200.379 179.5,202.5C 176.326,203.01 173.992,204.677 172.5,207.5C 171.503,207.53 170.836,207.03 170.5,206C 172.396,201.269 175.73,198.102 180.5,196.5 Z"/></g>
<g><path style="opacity:1" fill="#353b48" d="M 200.5,204.5 C 200.833,205.167 201.167,205.833 201.5,206.5C 201.5,206.833 201.5,207.167 201.5,207.5C 199.146,207.838 196.813,208.338 194.5,209C 193.773,210.399 193.273,211.899 193,213.5C 192.275,214.059 191.442,214.392 190.5,214.5C 188.733,212.718 186.733,211.385 184.5,210.5C 184.616,207.09 182.95,205.756 179.5,206.5C 179.5,205.5 179.5,204.5 179.5,203.5C 184.98,199.748 190.98,198.748 197.5,200.5C 198.521,201.901 199.521,203.235 200.5,204.5 Z"/></g>
<g><path style="opacity:1" fill="#8a5f5f" d="M 209.5,197.5 C 208.952,199.394 207.952,201.06 206.5,202.5C 208.436,205.208 208.936,208.208 208,211.5C 207.768,210.263 207.268,209.263 206.5,208.5C 205.501,205.826 203.834,205.159 201.5,206.5C 201.167,205.833 200.833,205.167 200.5,204.5C 201.209,203.596 202.209,203.263 203.5,203.5C 203.5,202.167 203.5,200.833 203.5,199.5C 205.703,199.396 207.703,198.73 209.5,197.5 Z"/></g>
<g><path style="opacity:1" fill="#86727d" d="M 64.5,183.5 C 64.8333,183.5 65.1667,183.5 65.5,183.5C 65.5,195.833 65.5,208.167 65.5,220.5C 64.8333,223.167 64.1667,225.833 63.5,228.5C 61.9519,228.179 61.2852,227.179 61.5,225.5C 62.821,222.402 63.4877,218.902 63.5,215C 64.1312,205.175 64.4645,195.342 64.5,185.5C 64.5,184.833 64.5,184.167 64.5,183.5 Z"/></g>
<g><path style="opacity:1" fill="#b79099" d="M 64.5,185.5 C 64.4645,195.342 64.1312,205.175 63.5,215C 63.4877,218.902 62.821,222.402 61.5,225.5C 60.9641,220.69 59.7975,216.023 58,211.5C 57.6174,212.056 57.1174,212.389 56.5,212.5C 57.7006,208.737 59.2006,205.07 61,201.5C 61.9448,195.986 63.1115,190.652 64.5,185.5 Z"/></g>
<g><path style="opacity:1" fill="#c07f7b" d="M 179.5,202.5 C 179.5,202.833 179.5,203.167 179.5,203.5C 179.5,204.5 179.5,205.5 179.5,206.5C 178.167,208.167 178.167,209.833 179.5,211.5C 179.5,212.5 179.5,213.5 179.5,214.5C 177.409,214.318 175.409,214.652 173.5,215.5C 172.52,212.914 172.187,210.247 172.5,207.5C 173.992,204.677 176.326,203.01 179.5,202.5 Z"/></g>
<g><path style="opacity:1" fill="#927579" d="M 148.5,205.5 C 148.833,207.5 149.167,209.5 149.5,211.5C 150.573,213.653 150.573,215.653 149.5,217.5C 148.332,212.676 146.998,208.009 145.5,203.5C 145.5,202.167 145.5,200.833 145.5,199.5C 145.369,198.761 145.536,198.094 146,197.5C 146.546,200.379 147.379,203.046 148.5,205.5 Z"/></g>
<g><path style="opacity:1" fill="#fae4e4" d="M 145.5,203.5 C 146.998,208.009 148.332,212.676 149.5,217.5C 151.823,224.153 155.156,230.153 159.5,235.5C 159.511,237.017 160.177,238.184 161.5,239C 157.152,241.161 152.985,240.995 149,238.5C 148.667,239.167 148.333,239.833 148,240.5C 142.238,235.316 138.238,228.982 136,221.5C 136.518,227.581 137.685,233.581 139.5,239.5C 133.894,240.759 128.228,241.259 122.5,241C 118.647,238.148 116.147,234.314 115,229.5C 114.51,230.793 114.343,232.127 114.5,233.5C 113.167,233.167 111.833,232.833 110.5,232.5C 110.5,232.167 110.5,231.833 110.5,231.5C 110.176,228.306 111.342,227.306 114,228.5C 114.058,223.274 113.225,218.274 111.5,213.5C 110.735,210.904 110.401,208.237 110.5,205.5C 111.434,206.568 111.768,207.901 111.5,209.5C 119.423,210.014 127.423,210.014 135.5,209.5C 137.174,208.12 138.84,206.787 140.5,205.5C 142.897,206.805 144.564,206.138 145.5,203.5 Z"/></g>
<g><path style="opacity:1" fill="#343b48" d="M 47.5,201.5 C 46.1927,206.066 45.526,210.733 45.5,215.5C 44.7321,216.263 44.2321,217.263 44,218.5C 42.8797,216.97 42.0464,215.303 41.5,213.5C 42.4598,208.914 44.4598,204.914 47.5,201.5 Z"/></g>
<g><path style="opacity:1" fill="#474352" d="M 108.5,194.5 C 108.646,198.387 109.313,202.054 110.5,205.5C 110.401,208.237 110.735,210.904 111.5,213.5C 111.5,215.833 111.5,218.167 111.5,220.5C 110.5,220.5 109.5,220.5 108.5,220.5C 108.802,217.941 108.468,215.607 107.5,213.5C 107.5,209.5 107.5,205.5 107.5,201.5C 107.198,198.941 107.532,196.607 108.5,194.5 Z"/></g>
<g><path style="opacity:1" fill="#b27b82" d="M 246.5,209.5 C 246.604,211.703 247.27,213.703 248.5,215.5C 246.621,227.15 243.287,238.483 238.5,249.5C 237.844,248.378 237.511,247.045 237.5,245.5C 238.567,235.167 239.567,224.833 240.5,214.5C 242.5,212.833 244.5,211.167 246.5,209.5 Z"/></g>
<g><path style="opacity:1" fill="#3b3d4a" d="M 61.5,225.5 C 61.2852,227.179 61.9519,228.179 63.5,228.5C 64.3366,233.636 63.0033,237.969 59.5,241.5C 57.8073,240.525 56.3073,239.192 55,237.5C 52.9404,234.714 51.4404,231.714 50.5,228.5C 51.9406,222.953 53.9406,217.62 56.5,212.5C 57.1174,212.389 57.6174,212.056 58,211.5C 59.7975,216.023 60.9641,220.69 61.5,225.5 Z"/></g>
<g><path style="opacity:1" fill="#fae5e6" d="M 106.5,201.5 C 106.833,201.5 107.167,201.5 107.5,201.5C 107.5,205.5 107.5,209.5 107.5,213.5C 107.841,221.675 108.508,229.675 109.5,237.5C 109.785,239.288 109.452,240.955 108.5,242.5C 105.956,239.725 104.456,236.391 104,232.5C 103.503,234.81 103.337,237.143 103.5,239.5C 99.083,239.594 95.2497,238.261 92,235.5C 89.5649,229.032 88.0649,222.365 87.5,215.5C 93.5092,215.666 99.5092,215.499 105.5,215C 106.467,210.599 106.8,206.099 106.5,201.5 Z"/></g>
<g><path style="opacity:1" fill="#fbe9ea" d="M 238.5,158.5 C 240.208,184.892 239.541,211.225 236.5,237.5C 233.653,237.218 230.987,237.218 228.5,237.5C 227.808,236.975 227.308,236.308 227,235.5C 224.263,236.61 221.429,236.777 218.5,236C 217.196,235.196 216.529,234.029 216.5,232.5C 217.586,229.58 218.252,226.58 218.5,223.5C 220.276,216.662 223.11,210.329 227,204.5C 227.181,201.305 227.681,198.305 228.5,195.5C 228.18,198.898 228.513,202.232 229.5,205.5C 232.286,207.263 235.119,207.93 238,207.5C 238.5,191.17 238.667,174.837 238.5,158.5 Z"/></g>
<g><path style="opacity:1" fill="#969395" d="M 107.5,213.5 C 108.468,215.607 108.802,217.941 108.5,220.5C 109.5,220.5 110.5,220.5 111.5,220.5C 111.5,218.167 111.5,215.833 111.5,213.5C 113.225,218.274 114.058,223.274 114,228.5C 111.342,227.306 110.176,228.306 110.5,231.5C 109.539,233.265 109.205,235.265 109.5,237.5C 108.508,229.675 107.841,221.675 107.5,213.5 Z"/></g>
<g><path style="opacity:1" fill="#daaba7" d="M 149.5,211.5 C 153.584,215.76 157.584,220.26 161.5,225C 164.585,226.96 167.752,228.793 171,230.5C 170.981,232.107 170.815,233.774 170.5,235.5C 167.008,234.437 163.674,233.27 160.5,232C 163.132,234.127 165.466,236.46 167.5,239C 165.058,241.428 162.058,242.595 158.5,242.5C 164.676,240.993 165.009,238.659 159.5,235.5C 155.156,230.153 151.823,224.153 149.5,217.5C 150.573,215.653 150.573,213.653 149.5,211.5 Z"/></g>
<g><path style="opacity:1" fill="#eec0b6" d="M 209.5,197.5 C 210.167,197.5 210.833,197.5 211.5,197.5C 210.485,208.884 207.818,219.884 203.5,230.5C 202.257,234.929 199.923,238.762 196.5,242C 192.356,245.199 188.523,244.699 185,240.5C 184.805,241.819 184.972,243.153 185.5,244.5C 181.157,240.093 180.491,235.093 183.5,229.5C 192.954,229.371 200.12,225.371 205,217.5C 206.149,214.607 206.649,211.607 206.5,208.5C 207.268,209.263 207.768,210.263 208,211.5C 208.936,208.208 208.436,205.208 206.5,202.5C 207.952,201.06 208.952,199.394 209.5,197.5 Z"/></g>
<g><path style="opacity:1" fill="#fae6e6" d="M 65.5,220.5 C 65.3345,224.514 65.5012,228.514 66,232.5C 69.6792,231.41 73.1792,229.91 76.5,228C 77.7811,226.591 78.7811,225.091 79.5,223.5C 79.5,236.833 79.5,250.167 79.5,263.5C 71.706,257.54 64.706,250.707 58.5,243C 59.056,242.617 59.3893,242.117 59.5,241.5C 63.0033,237.969 64.3366,233.636 63.5,228.5C 64.1667,225.833 64.8333,223.167 65.5,220.5 Z"/></g>
<g><path style="opacity:1" fill="#f9dfdf" d="M 85.5,213.5 C 86.1271,224.033 89.1271,233.699 94.5,242.5C 96.1927,253.63 98.526,264.63 101.5,275.5C 101.631,276.239 101.464,276.906 101,277.5C 99.9264,276.382 98.7598,275.382 97.5,274.5C 95.9239,270.35 94.0905,266.35 92,262.5C 91.6386,265.437 92.1386,268.27 93.5,271C 93.1639,272.03 92.4972,272.53 91.5,272.5C 87.6496,269.739 83.9829,266.739 80.5,263.5C 80.5198,246.159 80.8532,228.826 81.5,211.5C 83.1993,211.527 84.5326,212.194 85.5,213.5 Z"/></g>
<g><path style="opacity:1" fill="#3f3e4b" d="M 248.5,215.5 C 251.467,219.973 255.467,222.973 260.5,224.5C 261.84,223.706 262.007,225.706 261,230.5C 260.417,228.998 259.584,227.665 258.5,226.5C 254.929,222.406 251.762,222.739 249,227.5C 247.054,233.316 247.221,238.983 249.5,244.5C 250.167,246.5 250.833,248.5 251.5,250.5C 246.829,257.503 240.829,263.169 233.5,267.5C 232.702,267.043 232.369,266.376 232.5,265.5C 233.06,261.807 233.727,258.14 234.5,254.5C 236.876,253.794 238.21,252.127 238.5,249.5C 243.287,238.483 246.621,227.15 248.5,215.5 Z"/></g>
<g><path style="opacity:1" fill="#ab787f" d="M 215.5,226.5 C 215.833,226.5 216.167,226.5 216.5,226.5C 215.79,231.919 213.956,236.919 211,241.5C 210.94,246.39 209.94,251.057 208,255.5C 207.503,252.854 207.336,250.187 207.5,247.5C 206.5,247.5 205.5,247.5 204.5,247.5C 204.5,248.833 204.5,250.167 204.5,251.5C 203.835,249.302 203.168,246.969 202.5,244.5C 199.471,245.84 196.471,247.173 193.5,248.5C 188.489,248.666 183.489,248.499 178.5,248C 180.167,247.667 181.833,247.333 183.5,247C 184.756,246.583 185.423,245.75 185.5,244.5C 191.326,247.234 196.993,246.734 202.5,243C 207.429,237.912 211.762,232.412 215.5,226.5 Z"/></g>
<g><path style="opacity:1" fill="#8c7279" d="M 86.5,212.5 C 86.5569,213.609 86.8902,214.609 87.5,215.5C 88.0649,222.365 89.5649,229.032 92,235.5C 95.2497,238.261 99.083,239.594 103.5,239.5C 103.337,237.143 103.503,234.81 104,232.5C 104.456,236.391 105.956,239.725 108.5,242.5C 109.452,240.955 109.785,239.288 109.5,237.5C 109.205,235.265 109.539,233.265 110.5,231.5C 110.5,231.833 110.5,232.167 110.5,232.5C 111.167,236.5 111.833,240.5 112.5,244.5C 107.331,243.444 102.331,241.777 97.5,239.5C 96.7084,240.7 96.7084,242.033 97.5,243.5C 96.5416,243.047 95.7083,242.381 95,241.5C 94.6012,241.728 94.4346,242.062 94.5,242.5C 89.1271,233.699 86.1271,224.033 85.5,213.5C 85.5,212.833 85.8333,212.5 86.5,212.5 Z"/></g>
<g><path style="opacity:1" fill="#987f84" d="M 159.5,235.5 C 165.009,238.659 164.676,240.993 158.5,242.5C 154.818,242.665 151.152,242.499 147.5,242C 145.333,239.833 143.167,237.667 141,235.5C 140.421,236.928 140.588,238.262 141.5,239.5C 140.486,240.765 138.986,241.431 137,241.5C 131.857,242.225 126.69,242.559 121.5,242.5C 118.442,240.043 116.108,237.043 114.5,233.5C 114.343,232.127 114.51,230.793 115,229.5C 116.147,234.314 118.647,238.148 122.5,241C 128.228,241.259 133.894,240.759 139.5,239.5C 137.685,233.581 136.518,227.581 136,221.5C 138.238,228.982 142.238,235.316 148,240.5C 148.333,239.833 148.667,239.167 149,238.5C 152.985,240.995 157.152,241.161 161.5,239C 160.177,238.184 159.511,237.017 159.5,235.5 Z"/></g>
<g><path style="opacity:1" fill="#fce2d7" d="M 189.5,150.5 C 191.213,151.635 191.88,153.302 191.5,155.5C 191.171,158.228 191.837,160.562 193.5,162.5C 195.292,163.309 197.292,163.809 199.5,164C 205.03,170.065 208.363,177.231 209.5,185.5C 210.376,189.462 211.042,193.462 211.5,197.5C 210.833,197.5 210.167,197.5 209.5,197.5C 207.703,198.73 205.703,199.396 203.5,199.5C 197.181,195.368 190.181,193.368 182.5,193.5C 184.658,191.78 187.325,190.947 190.5,191C 185.338,188.871 180.005,188.204 174.5,189C 172.984,190.897 172.317,193.064 172.5,195.5C 174.905,195.134 177.238,194.467 179.5,193.5C 180.584,193.685 181.584,194.018 182.5,194.5C 182.167,195.5 181.5,196.167 180.5,196.5C 175.73,198.102 172.396,201.269 170.5,206C 170.836,207.03 171.503,207.53 172.5,207.5C 172.187,210.247 172.52,212.914 173.5,215.5C 175.409,214.652 177.409,214.318 179.5,214.5C 180.66,215.265 181.66,216.265 182.5,217.5C 181.674,218.451 181.508,219.451 182,220.5C 183.451,222.464 185.284,223.797 187.5,224.5C 193.52,225.456 197.52,223.123 199.5,217.5C 200.117,217.389 200.617,217.056 201,216.5C 201.498,213.518 201.665,210.518 201.5,207.5C 201.5,207.167 201.5,206.833 201.5,206.5C 203.834,205.159 205.501,205.826 206.5,208.5C 206.649,211.607 206.149,214.607 205,217.5C 200.12,225.371 192.954,229.371 183.5,229.5C 180.491,235.093 181.157,240.093 185.5,244.5C 185.423,245.75 184.756,246.583 183.5,247C 181.833,247.333 180.167,247.667 178.5,248C 183.489,248.499 188.489,248.666 193.5,248.5C 192.571,249.315 191.571,250.148 190.5,251C 194.225,251.76 197.892,251.593 201.5,250.5C 202.386,251.325 202.719,252.325 202.5,253.5C 202.331,258.892 200.998,263.892 198.5,268.5C 197.5,268.833 196.833,269.5 196.5,270.5C 187.331,276.144 177.998,281.644 168.5,287C 163.254,288.506 157.921,288.839 152.5,288C 134.441,284.067 119.441,275.234 107.5,261.5C 107.443,260.391 107.11,259.391 106.5,258.5C 106.84,254.452 107.506,250.452 108.5,246.5C 109.167,248.167 109.833,249.833 110.5,251.5C 113.191,246.999 116.691,246.332 121,249.5C 122.924,249.217 124.591,247.884 126,245.5C 131.266,246.824 136.433,246.824 141.5,245.5C 142.5,245.5 143.5,245.5 144.5,245.5C 144.539,242.911 143.539,240.911 141.5,239.5C 140.588,238.262 140.421,236.928 141,235.5C 143.167,237.667 145.333,239.833 147.5,242C 151.152,242.499 154.818,242.665 158.5,242.5C 162.058,242.595 165.058,241.428 167.5,239C 165.466,236.46 163.132,234.127 160.5,232C 163.674,233.27 167.008,234.437 170.5,235.5C 170.815,233.774 170.981,232.107 171,230.5C 167.752,228.793 164.585,226.96 161.5,225C 157.584,220.26 153.584,215.76 149.5,211.5C 149.167,209.5 148.833,207.5 148.5,205.5C 148.103,200.041 148.603,194.708 150,189.5C 156.199,183.636 162.032,177.469 167.5,171C 174.826,170.5 182.159,170.334 189.5,170.5C 189.843,168.517 189.176,167.183 187.5,166.5C 186.737,165.732 185.737,165.232 184.5,165C 180.046,164.729 175.713,164.563 171.5,164.5C 175.578,159.011 178.578,153.011 180.5,146.5C 183.148,148.658 186.148,149.992 189.5,150.5 Z"/></g>
<g><path style="opacity:1" fill="#c5e3d7" d="M 199.5,217.5 C 197.52,223.123 193.52,225.456 187.5,224.5C 184.784,222.036 185.118,219.87 188.5,218C 192.229,216.3 195.895,216.133 199.5,217.5 Z"/></g>
<g><path style="opacity:1" fill="#9b9e9c" d="M 201.5,207.5 C 201.665,210.518 201.498,213.518 201,216.5C 200.617,217.056 200.117,217.389 199.5,217.5C 195.895,216.133 192.229,216.3 188.5,218C 185.118,219.87 184.784,222.036 187.5,224.5C 185.284,223.797 183.451,222.464 182,220.5C 181.508,219.451 181.674,218.451 182.5,217.5C 181.66,216.265 180.66,215.265 179.5,214.5C 179.5,213.5 179.5,212.5 179.5,211.5C 181.292,211.634 182.958,211.301 184.5,210.5C 186.733,211.385 188.733,212.718 190.5,214.5C 191.442,214.392 192.275,214.059 193,213.5C 193.273,211.899 193.773,210.399 194.5,209C 196.813,208.338 199.146,207.838 201.5,207.5 Z"/></g>
<g><path style="opacity:1" fill="#ede6e6" d="M 179.5,206.5 C 182.95,205.756 184.616,207.09 184.5,210.5C 182.958,211.301 181.292,211.634 179.5,211.5C 178.167,209.833 178.167,208.167 179.5,206.5 Z"/></g>
<g><path style="opacity:1" fill="#dcaba7" d="M 182.5,193.5 C 182.5,193.833 182.5,194.167 182.5,194.5C 181.584,194.018 180.584,193.685 179.5,193.5C 177.238,194.467 174.905,195.134 172.5,195.5C 172.317,193.064 172.984,190.897 174.5,189C 180.005,188.204 185.338,188.871 190.5,191C 187.325,190.947 184.658,191.78 182.5,193.5 Z"/></g>
<g><path style="opacity:1" fill="#e1a9a3" d="M 141.5,239.5 C 143.539,240.911 144.539,242.911 144.5,245.5C 143.5,245.5 142.5,245.5 141.5,245.5C 134.362,246.197 127.696,245.197 121.5,242.5C 126.69,242.559 131.857,242.225 137,241.5C 138.986,241.431 140.486,240.765 141.5,239.5 Z"/></g>
<g><path style="opacity:1" fill="#3b3a49" d="M 97.5,243.5 C 99.0489,248.265 101.382,252.598 104.5,256.5C 105.167,257.167 105.833,257.833 106.5,258.5C 107.11,259.391 107.443,260.391 107.5,261.5C 108.619,264.888 110.619,267.721 113.5,270C 118.308,273.308 122.975,276.808 127.5,280.5C 128.747,282.323 129.414,284.323 129.5,286.5C 119.156,284.98 109.823,281.313 101.5,275.5C 98.526,264.63 96.1927,253.63 94.5,242.5C 94.4346,242.062 94.6012,241.728 95,241.5C 95.7083,242.381 96.5416,243.047 97.5,243.5 Z"/></g>
<g><path style="opacity:1" fill="#f5c2b7" d="M 110.5,232.5 C 111.833,232.833 113.167,233.167 114.5,233.5C 116.108,237.043 118.442,240.043 121.5,242.5C 127.696,245.197 134.362,246.197 141.5,245.5C 136.433,246.824 131.266,246.824 126,245.5C 124.591,247.884 122.924,249.217 121,249.5C 116.691,246.332 113.191,246.999 110.5,251.5C 109.833,249.833 109.167,248.167 108.5,246.5C 107.506,250.452 106.84,254.452 106.5,258.5C 105.833,257.833 105.167,257.167 104.5,256.5C 102.941,251.712 100.607,247.379 97.5,243.5C 96.7084,242.033 96.7084,240.7 97.5,239.5C 102.331,241.777 107.331,243.444 112.5,244.5C 111.833,240.5 111.167,236.5 110.5,232.5 Z"/></g>
<g><path style="opacity:1" fill="#90595d" d="M 97.5,243.5 C 100.607,247.379 102.941,251.712 104.5,256.5C 101.382,252.598 99.0489,248.265 97.5,243.5 Z"/></g>
<g><path style="opacity:1" fill="#e2aaa4" d="M 204.5,251.5 C 204.672,252.492 204.338,253.158 203.5,253.5C 203.167,253.5 202.833,253.5 202.5,253.5C 202.719,252.325 202.386,251.325 201.5,250.5C 197.892,251.593 194.225,251.76 190.5,251C 191.571,250.148 192.571,249.315 193.5,248.5C 196.471,247.173 199.471,245.84 202.5,244.5C 203.168,246.969 203.835,249.302 204.5,251.5 Z"/></g>
<g><path style="opacity:1" fill="#c1c5c6" d="M 19.5,170.5 C 20.1993,172.556 21.1993,174.556 22.5,176.5C 25.1941,175.141 27.8607,174.808 30.5,175.5C 30.9182,182.15 32.2515,188.484 34.5,194.5C 35.9638,199.558 37.6304,204.558 39.5,209.5C 39.9887,210.995 40.6554,212.329 41.5,213.5C 42.0464,215.303 42.8797,216.97 44,218.5C 44.2321,217.263 44.7321,216.263 45.5,215.5C 44.2683,220.661 45.435,225.328 49,229.5C 49.3826,228.944 49.8826,228.611 50.5,228.5C 51.4404,231.714 52.9404,234.714 55,237.5C 56.3073,239.192 57.8073,240.525 59.5,241.5C 59.3893,242.117 59.056,242.617 58.5,243C 64.706,250.707 71.706,257.54 79.5,263.5C 79.8333,263.5 80.1667,263.5 80.5,263.5C 83.9829,266.739 87.6496,269.739 91.5,272.5C 88.9575,272.697 86.4575,273.03 84,273.5C 81.923,272.983 79.923,272.316 78,271.5C 77.5831,272.756 76.7498,273.423 75.5,273.5C 41.4324,247.709 22.7657,213.375 19.5,170.5 Z"/></g>
<g><path style="opacity:1" fill="#f9dcdc" d="M 218.5,223.5 C 218.252,226.58 217.586,229.58 216.5,232.5C 216.529,234.029 217.196,235.196 218.5,236C 221.429,236.777 224.263,236.61 227,235.5C 227.308,236.308 227.808,236.975 228.5,237.5C 230.987,237.218 233.653,237.218 236.5,237.5C 236.353,243.233 235.686,248.9 234.5,254.5C 233.727,258.14 233.06,261.807 232.5,265.5C 228.219,274.031 226.553,273.365 227.5,263.5C 228.387,257.855 228.554,252.188 228,246.5C 226.634,254.961 224.801,263.295 222.5,271.5C 221.314,274.34 219.314,276.506 216.5,278C 209.13,281.272 201.63,284.105 194,286.5C 193.536,285.906 193.369,285.239 193.5,284.5C 195.898,281.429 197.898,278.095 199.5,274.5C 201.842,272.683 203.009,270.35 203,267.5C 202.094,270.121 201.594,269.954 201.5,267C 202.867,262.599 203.533,258.099 203.5,253.5C 204.338,253.158 204.672,252.492 204.5,251.5C 204.5,250.167 204.5,248.833 204.5,247.5C 205.5,247.5 206.5,247.5 207.5,247.5C 207.336,250.187 207.503,252.854 208,255.5C 209.94,251.057 210.94,246.39 211,241.5C 213.956,236.919 215.79,231.919 216.5,226.5C 217.167,225.5 217.833,224.5 218.5,223.5 Z"/></g>
<g><path style="opacity:1" fill="#554f5c" d="M 227.5,263.5 C 226.683,265.969 226.183,268.635 226,271.5C 224.446,273.927 223.279,273.927 222.5,271.5C 224.801,263.295 226.634,254.961 228,246.5C 228.554,252.188 228.387,257.855 227.5,263.5 Z"/></g>
<g><path style="opacity:1" fill="#786670" d="M 202.5,253.5 C 202.833,253.5 203.167,253.5 203.5,253.5C 203.533,258.099 202.867,262.599 201.5,267C 201.594,269.954 202.094,270.121 203,267.5C 203.009,270.35 201.842,272.683 199.5,274.5C 199.795,272.265 199.461,270.265 198.5,268.5C 200.998,263.892 202.331,258.892 202.5,253.5 Z"/></g>
<g><path style="opacity:1" fill="#bcbcbc" d="M 268.5,249.5 C 232.185,292.124 186.185,308.624 130.5,299C 110.151,294.617 91.818,286.117 75.5,273.5C 76.7498,273.423 77.5831,272.756 78,271.5C 79.923,272.316 81.923,272.983 84,273.5C 86.4575,273.03 88.9575,272.697 91.5,272.5C 92.4972,272.53 93.1639,272.03 93.5,271C 92.1386,268.27 91.6386,265.437 92,262.5C 94.0905,266.35 95.9239,270.35 97.5,274.5C 98.7598,275.382 99.9264,276.382 101,277.5C 101.464,276.906 101.631,276.239 101.5,275.5C 109.823,281.313 119.156,284.98 129.5,286.5C 149.799,291.79 170.132,291.79 190.5,286.5C 191.5,285.833 192.5,285.167 193.5,284.5C 193.369,285.239 193.536,285.906 194,286.5C 201.63,284.105 209.13,281.272 216.5,278C 219.314,276.506 221.314,274.34 222.5,271.5C 223.279,273.927 224.446,273.927 226,271.5C 226.183,268.635 226.683,265.969 227.5,263.5C 226.553,273.365 228.219,274.031 232.5,265.5C 232.369,266.376 232.702,267.043 233.5,267.5C 240.829,263.169 246.829,257.503 251.5,250.5C 252.117,250.611 252.617,250.944 253,251.5C 254.684,249.649 256.517,247.982 258.5,246.5C 260.709,247.106 262.876,247.773 265,248.5C 265.414,248.043 265.914,247.709 266.5,247.5C 267.182,248.243 267.849,248.909 268.5,249.5 Z"/></g>
<g><path style="opacity:1" fill="#413d4b" d="M 198.5,268.5 C 199.461,270.265 199.795,272.265 199.5,274.5C 197.898,278.095 195.898,281.429 193.5,284.5C 192.5,285.167 191.5,285.833 190.5,286.5C 190.74,280.441 192.74,275.108 196.5,270.5C 196.833,269.5 197.5,268.833 198.5,268.5 Z"/></g>
<g><path style="opacity:1" fill="#a6696f" d="M 107.5,261.5 C 119.441,275.234 134.441,284.067 152.5,288C 157.921,288.839 163.254,288.506 168.5,287C 177.998,281.644 187.331,276.144 196.5,270.5C 192.74,275.108 190.74,280.441 190.5,286.5C 170.132,291.79 149.799,291.79 129.5,286.5C 129.414,284.323 128.747,282.323 127.5,280.5C 122.975,276.808 118.308,273.308 113.5,270C 110.619,267.721 108.619,264.888 107.5,261.5 Z"/></g>
</svg>
