<?xml version="1.0" encoding="UTF-8"?>
<!DOCTYPE svg PUBLIC "-//W3C//DTD SVG 1.1//EN" "http://www.w3.org/Graphics/SVG/1.1/DTD/svg11.dtd">
<svg xmlns="http://www.w3.org/2000/svg" version="1.1" width="320px" height="320px" style="shape-rendering:geometricPrecision; text-rendering:geometricPrecision; image-rendering:optimizeQuality; fill-rule:evenodd; clip-rule:evenodd" xmlns:xlink="http://www.w3.org/1999/xlink">
<g><path style="opacity:0.075" fill="#020202" d="M 141.5,16.5 C 193.73,11.6246 237.563,28.2913 273,66.5C 304.432,106.913 314.432,152.246 303,202.5C 284.569,264.6 243.403,300.767 179.5,311C 117.029,317.32 68.1959,294.82 33,243.5C 11.3532,205.055 6.01985,164.389 17,121.5C 36.9425,60.7987 78.4425,25.7987 141.5,16.5 Z"/></g>
<g><path style="opacity:1" fill="#fbf9fa" d="M 266.5,70.5 C 266.414,71.4959 266.748,72.3292 267.5,73C 265.899,73.2734 264.399,73.7734 263,74.5C 260.731,74.2741 258.231,73.9408 255.5,73.5C 252.065,69.5621 248.398,65.7288 244.5,62C 243.833,61.3333 243.167,61.3333 242.5,62C 250.958,71.7363 257.792,82.5697 263,94.5C 267.771,106.584 271.771,118.917 275,131.5C 278,138.833 281,146.167 284,153.5C 284.579,157.203 284.412,160.869 283.5,164.5C 280.691,168.768 277.857,173.102 275,177.5C 273.296,179.373 271.463,181.04 269.5,182.5C 269.5,178.833 269.5,175.167 269.5,171.5C 270.145,162.007 270.145,152.34 269.5,142.5C 269.069,131.118 266.903,120.118 263,109.5C 263.465,118.253 264.798,126.919 267,135.5C 267.5,144.494 267.666,153.494 267.5,162.5C 267.493,165.038 267.159,167.538 266.5,170C 266.316,171.376 265.649,172.209 264.5,172.5C 263.924,162.485 263.091,152.485 262,142.5C 261.581,141.328 260.915,140.328 260,139.5C 259.5,146.158 259.334,152.825 259.5,159.5C 258.647,161.926 256.981,162.76 254.5,162C 253.338,159.184 252.171,156.35 251,153.5C 250.805,155.207 250.805,156.874 251,158.5C 245.388,150.411 242.054,141.411 241,131.5C 241.386,140.149 241.886,148.815 242.5,157.5C 242.5,162.167 242.5,166.833 242.5,171.5C 237.416,172.245 233.916,170.245 232,165.5C 231.517,166.448 231.351,167.448 231.5,168.5C 227.695,167.675 224.362,166.009 221.5,163.5C 219.076,163.148 217.576,164.148 217,166.5C 216.148,165.429 215.315,164.429 214.5,163.5C 214.682,161.409 214.348,159.409 213.5,157.5C 215.869,155.499 218.202,153.499 220.5,151.5C 222.696,144.494 220.363,141.827 213.5,143.5C 211.997,138.086 210.331,132.586 208.5,127C 208.57,126.235 208.903,125.735 209.5,125.5C 212.177,127.432 215.177,127.932 218.5,127C 221.349,123.984 224.349,121.15 227.5,118.5C 230.955,121.116 234.288,123.95 237.5,127C 246.544,127.622 250.378,123.456 249,114.5C 245.934,111.604 243.101,108.604 240.5,105.5C 243.129,102.369 245.962,99.3694 249,96.5C 250.925,87.0914 247.091,82.5914 237.5,83C 234.333,86.1667 231.167,89.3333 228,92.5C 224.438,87.7538 219.938,84.4204 214.5,82.5C 207.792,84.3636 204.959,88.6969 206,95.5C 209.442,98.432 212.275,101.765 214.5,105.5C 211.871,108.631 209.038,111.631 206,114.5C 205.505,116.473 205.338,118.473 205.5,120.5C 204.982,121.577 204.648,122.744 204.5,124C 206.398,131.419 207.731,138.919 208.5,146.5C 204.553,148.473 200.553,150.473 196.5,152.5C 195.482,151.807 194.482,151.141 193.5,150.5C 193.821,148.952 194.821,148.285 196.5,148.5C 196.921,142.186 195.754,136.186 193,130.5C 192.833,131.167 192.667,131.833 192.5,132.5C 193.976,136.736 194.976,141.07 195.5,145.5C 193.167,145.5 190.833,145.5 188.5,145.5C 184.167,143.167 180.833,139.833 178.5,135.5C 175.894,127.315 173.728,118.981 172,110.5C 172.288,117.464 172.455,124.464 172.5,131.5C 171.787,149.577 165.12,164.911 152.5,177.5C 150.983,177.489 149.816,176.823 149,175.5C 145.575,169.099 143.075,162.433 141.5,155.5C 140.27,144.176 141.937,133.343 146.5,123C 146.333,122.5 146.167,122 146,121.5C 144.861,124.583 143.528,127.583 142,130.5C 141.667,127.833 141.333,125.167 141,122.5C 139.361,135.113 138.528,147.78 138.5,160.5C 137.778,160.082 137.278,159.416 137,158.5C 134.38,159.923 131.88,159.757 129.5,158C 131.668,156.03 132.002,153.863 130.5,151.5C 130.573,149.973 129.906,148.973 128.5,148.5C 128.423,147.25 127.756,146.417 126.5,146C 123.469,145.505 120.469,145.671 117.5,146.5C 118.376,149.799 118.543,153.132 118,156.5C 114.711,159.241 112.211,158.575 110.5,154.5C 110.055,151.755 109.055,149.255 107.5,147C 103.514,146.501 99.5138,146.334 95.5,146.5C 95.6061,149.079 94.9395,151.412 93.5,153.5C 90.5352,154.734 87.5352,154.734 84.5,153.5C 84.0653,150.162 84.7319,147.162 86.5,144.5C 85.5,144.5 84.5,144.5 83.5,144.5C 83.6641,141.813 83.4974,139.146 83,136.5C 81.5052,142.485 80.3385,148.485 79.5,154.5C 78.596,155.209 78.2627,156.209 78.5,157.5C 76.4186,156.28 74.4186,155.614 72.5,155.5C 71.8333,157.5 71.1667,159.5 70.5,161.5C 64.4735,163.713 61.9735,168.047 63,174.5C 62.5034,172.19 62.3367,169.857 62.5,167.5C 63.2912,159.176 63.4579,150.843 63,142.5C 62.4412,146.186 61.7745,149.853 61,153.5C 60.7467,165.192 60.2467,176.858 59.5,188.5C 57.9365,196.425 55.6032,204.092 52.5,211.5C 50.6385,215.75 48.9718,220.083 47.5,224.5C 44.6263,221.786 42.4596,218.453 41,214.5C 40.4209,213.072 40.5876,211.738 41.5,210.5C 44.7076,197.545 47.7076,184.545 50.5,171.5C 51.9915,167.736 52.9915,163.736 53.5,159.5C 56.1065,149.385 57.9399,139.051 59,128.5C 56.116,144.563 51.2826,159.896 44.5,174.5C 42.5878,155.876 43.5878,137.542 47.5,119.5C 49.1334,125.816 53.1334,128.316 59.5,127C 62.5214,123.123 66.188,120.289 70.5,118.5C 72.9619,121.464 75.6286,124.297 78.5,127C 87.5443,127.622 91.3777,123.456 90,114.5C 87.6658,111 84.8325,108 81.5,105.5C 84.1288,102.369 86.9621,99.3694 90,96.5C 91.8333,86.3333 87.6667,82.1667 77.5,84C 74.5839,87.0874 71.5839,89.9207 68.5,92.5C 65.8605,89.1938 62.8605,86.1938 59.5,83.5C 59.5,83.1667 59.5,82.8333 59.5,82.5C 61.0862,80.3295 62.4196,77.9962 63.5,75.5C 65.4161,74.3347 66.2494,72.668 66,70.5C 64.5142,72.5781 62.5142,73.9115 60,74.5C 57.6667,73.1667 55.3333,73.1667 53,74.5C 51.4894,73.436 51.3228,72.1026 52.5,70.5C 90.9766,27.4746 138.643,12.308 195.5,25C 224.08,32.7923 247.747,47.9589 266.5,70.5 Z"/></g>
<g><path style="opacity:1" fill="#9a7583" d="M 156.5,56.5 C 155.722,62.7669 154.389,63.4336 152.5,58.5C 151.657,56.8267 150.324,55.66 148.5,55C 134.939,54.8621 123.772,60.0287 115,70.5C 116.54,67.3963 117.54,64.063 118,60.5C 114.179,59.447 110.346,59.2803 106.5,60C 119.215,50.9904 133.215,47.9904 148.5,51C 151.597,52.2734 154.264,54.1067 156.5,56.5 Z"/></g>
<g><path style="opacity:1" fill="#d0bbc2" d="M 157.5,56.5 C 164.191,54.9139 170.525,56.0805 176.5,60C 185.584,65.7365 192.417,73.2365 197,82.5C 193.833,78 190,74.1667 185.5,71C 177.034,67.7393 168.367,66.906 159.5,68.5C 161.478,64.8606 163.478,61.1939 165.5,57.5C 162.914,56.52 160.247,56.1866 157.5,56.5 Z"/></g>
<g><path style="opacity:1" fill="#bea2ab" d="M 156.5,56.5 C 156.833,56.5 157.167,56.5 157.5,56.5C 160.247,56.1866 162.914,56.52 165.5,57.5C 163.478,61.1939 161.478,64.8606 159.5,68.5C 155.475,70.5642 153.475,73.8975 153.5,78.5C 141.928,73.2965 132.428,75.9631 125,86.5C 129.908,75.1425 138.741,68.8091 151.5,67.5C 152.407,64.5788 152.74,61.5788 152.5,58.5C 154.389,63.4336 155.722,62.7669 156.5,56.5 Z"/></g>
<g><path style="opacity:1" fill="#373c49" d="M 255.5,73.5 C 278.04,99.1026 289.374,129.103 289.5,163.5C 289.194,174.034 287.527,184.368 284.5,194.5C 283.567,191.63 281.9,189.296 279.5,187.5C 276.382,193.187 274.048,199.187 272.5,205.5C 268.736,213.783 267.07,222.45 267.5,231.5C 267.672,232.492 267.338,233.158 266.5,233.5C 264.678,228.829 261.345,226.329 256.5,226C 253.137,229.479 251.803,233.646 252.5,238.5C 252.315,242.141 252.981,245.474 254.5,248.5C 249.503,254.33 244.003,259.663 238,264.5C 237.536,263.906 237.369,263.239 237.5,262.5C 237.993,260.194 238.326,257.861 238.5,255.5C 239.472,258.098 240.472,258.098 241.5,255.5C 245.759,246.222 248.926,236.555 251,226.5C 251.817,221.337 251.317,216.337 249.5,211.5C 252.92,218.588 258.253,223.588 265.5,226.5C 266.995,218.591 267.829,210.591 268,202.5C 268.249,203.624 268.749,204.624 269.5,205.5C 271.984,202.199 273.651,198.533 274.5,194.5C 278.505,184.818 281.505,174.818 283.5,164.5C 284.412,160.869 284.579,157.203 284,153.5C 281,146.167 278,138.833 275,131.5C 271.771,118.917 267.771,106.584 263,94.5C 257.792,82.5697 250.958,71.7363 242.5,62C 243.167,61.3333 243.833,61.3333 244.5,62C 248.398,65.7288 252.065,69.5621 255.5,73.5 Z"/></g>
<g><path style="opacity:1" fill="#3f4550" d="M 63.5,75.5 C 62.4196,77.9962 61.0862,80.3295 59.5,82.5C 58.5,82.5 57.5,82.5 56.5,82.5C 58.8327,79.9974 60.9993,77.3307 63,74.5C 63.3988,74.7284 63.5654,75.0618 63.5,75.5 Z"/></g>
<g><path style="opacity:1" fill="#fea5a6" d="M 81.5,105.5 C 77.369,109.13 73.369,112.963 69.5,117C 70.056,117.383 70.3893,117.883 70.5,118.5C 66.188,120.289 62.5214,123.123 59.5,127C 53.1334,128.316 49.1334,125.816 47.5,119.5C 47.3253,117.379 47.6586,115.379 48.5,113.5C 51.9031,111.1 54.5698,108.1 56.5,104.5C 57.2389,104.631 57.9056,104.464 58.5,104C 61.6984,99.9739 65.0317,96.1405 68.5,92.5C 71.5839,89.9207 74.5839,87.0874 77.5,84C 87.6667,82.1667 91.8333,86.3333 90,96.5C 86.9621,99.3694 84.1288,102.369 81.5,105.5 Z"/></g>
<g><path style="opacity:1" fill="#5f85a0" d="M 240.5,105.5 C 239.728,104.306 238.728,103.306 237.5,102.5C 234.199,99.5074 230.865,96.5074 227.5,93.5C 223.479,96.8544 219.812,100.521 216.5,104.5C 215.833,104.833 215.167,105.167 214.5,105.5C 212.275,101.765 209.442,98.432 206,95.5C 204.959,88.6969 207.792,84.3636 214.5,82.5C 219.938,84.4204 224.438,87.7538 228,92.5C 231.167,89.3333 234.333,86.1667 237.5,83C 247.091,82.5914 250.925,87.0914 249,96.5C 245.962,99.3694 243.129,102.369 240.5,105.5 Z"/></g>
<g><path style="opacity:1" fill="#834b55" d="M 56.5,82.5 C 57.5,82.5 58.5,82.5 59.5,82.5C 59.5,82.8333 59.5,83.1667 59.5,83.5C 55.8116,88.5547 53.4782,94.2214 52.5,100.5C 52.1667,100.5 51.8333,100.5 51.5,100.5C 50.925,98.5887 49.925,96.922 48.5,95.5C 50.4176,90.6566 53.0843,86.3233 56.5,82.5 Z"/></g>
<g><path style="opacity:1" fill="#fc8587" d="M 59.5,83.5 C 62.8605,86.1938 65.8605,89.1938 68.5,92.5C 65.0317,96.1405 61.6984,99.9739 58.5,104C 57.9056,104.464 57.2389,104.631 56.5,104.5C 54.8058,103.473 53.4725,102.139 52.5,100.5C 53.4782,94.2214 55.8116,88.5547 59.5,83.5 Z"/></g>
<g><path style="opacity:1" fill="#2e3744" d="M 237.5,102.5 C 238.218,104.137 238.384,105.803 238,107.5C 234.667,110.833 231.333,114.167 228,117.5C 223.564,113.572 219.731,109.239 216.5,104.5C 219.812,100.521 223.479,96.8544 227.5,93.5C 230.865,96.5074 234.199,99.5074 237.5,102.5 Z"/></g>
<g><path style="opacity:1" fill="#333b47" d="M 48.5,95.5 C 49.925,96.922 50.925,98.5887 51.5,100.5C 50.3434,104.793 49.3434,109.127 48.5,113.5C 47.6586,115.379 47.3253,117.379 47.5,119.5C 43.5878,137.542 42.5878,155.876 44.5,174.5C 44.6744,177.874 45.1744,181.207 46,184.5C 47.5668,180.121 49.0668,175.787 50.5,171.5C 47.7076,184.545 44.7076,197.545 41.5,210.5C 40.2502,210.423 39.4169,209.756 39,208.5C 31.9571,189.45 29.1238,169.783 30.5,149.5C 31.9502,129.816 37.9502,111.816 48.5,95.5 Z"/></g>
<g><path style="opacity:1" fill="#af919c" d="M 149.5,97.5 C 155.035,97.1033 159.368,99.1033 162.5,103.5C 160.477,104.041 158.477,103.541 156.5,102C 151.062,101.067 147.228,103.234 145,108.5C 143.687,112.42 142.687,116.42 142,120.5C 141.401,111.798 143.901,104.131 149.5,97.5 Z"/></g>
<g><path style="opacity:1" fill="#f2edee" d="M 51.5,100.5 C 51.8333,100.5 52.1667,100.5 52.5,100.5C 53.4725,102.139 54.8058,103.473 56.5,104.5C 54.5698,108.1 51.9031,111.1 48.5,113.5C 49.3434,109.127 50.3434,104.793 51.5,100.5 Z"/></g>
<g><path style="opacity:1" fill="#3b4355" d="M 237.5,102.5 C 238.728,103.306 239.728,104.306 240.5,105.5C 243.101,108.604 245.934,111.604 249,114.5C 250.378,123.456 246.544,127.622 237.5,127C 234.288,123.95 230.955,121.116 227.5,118.5C 224.349,121.15 221.349,123.984 218.5,127C 215.177,127.932 212.177,127.432 209.5,125.5C 208.136,123.809 206.803,122.142 205.5,120.5C 205.338,118.473 205.505,116.473 206,114.5C 209.038,111.631 211.871,108.631 214.5,105.5C 215.167,105.167 215.833,104.833 216.5,104.5C 219.731,109.239 223.564,113.572 228,117.5C 231.333,114.167 234.667,110.833 238,107.5C 238.384,105.803 238.218,104.137 237.5,102.5 Z"/></g>
<g><path style="opacity:1" fill="#fe8688" d="M 81.5,105.5 C 84.8325,108 87.6658,111 90,114.5C 91.3777,123.456 87.5443,127.622 78.5,127C 75.6286,124.297 72.9619,121.464 70.5,118.5C 70.3893,117.883 70.056,117.383 69.5,117C 73.369,112.963 77.369,109.13 81.5,105.5 Z"/></g>
<g><path style="opacity:1" fill="#d6ddde" d="M 266.5,70.5 C 291.275,99.493 302.275,133.16 299.5,171.5C 298.691,173.292 298.191,175.292 298,177.5C 297.16,174.536 296.16,174.203 295,176.5C 293.301,175.594 291.467,175.261 289.5,175.5C 289.5,171.5 289.5,167.5 289.5,163.5C 289.374,129.103 278.04,99.1026 255.5,73.5C 258.231,73.9408 260.731,74.2741 263,74.5C 264.399,73.7734 265.899,73.2734 267.5,73C 266.748,72.3292 266.414,71.4959 266.5,70.5 Z"/></g>
<g><path style="opacity:1" fill="#a98c96" d="M 178.5,135.5 C 175.962,132.755 174.462,129.422 174,125.5C 173.809,127.708 173.309,129.708 172.5,131.5C 172.455,124.464 172.288,117.464 172,110.5C 173.728,118.981 175.894,127.315 178.5,135.5 Z"/></g>
<g><path style="opacity:1" fill="#dfd1d5" d="M 269.5,142.5 C 268.833,149.167 268.167,155.833 267.5,162.5C 267.666,153.494 267.5,144.494 267,135.5C 264.798,126.919 263.465,118.253 263,109.5C 266.903,120.118 269.069,131.118 269.5,142.5 Z"/></g>
<g><path style="opacity:1" fill="#574c58" d="M 178.5,135.5 C 180.833,139.833 184.167,143.167 188.5,145.5C 183.056,143.902 178.89,140.569 176,135.5C 172.469,145.634 168.635,155.634 164.5,165.5C 162.584,168.598 160.417,171.598 158,174.5C 153.721,178.289 149.721,182.289 146,186.5C 145.057,196.404 146.224,206.07 149.5,215.5C 149.457,216.416 149.124,217.083 148.5,217.5C 147.945,213.603 146.945,209.937 145.5,206.5C 143.4,195.231 141.733,183.897 140.5,172.5C 140.328,171.508 140.662,170.842 141.5,170.5C 141.27,175.25 142.437,179.584 145,183.5C 147.688,181.636 150.188,179.636 152.5,177.5C 165.12,164.911 171.787,149.577 172.5,131.5C 173.309,129.708 173.809,127.708 174,125.5C 174.462,129.422 175.962,132.755 178.5,135.5 Z"/></g>
<g><path style="opacity:1" fill="#bb9fa7" d="M 205.5,120.5 C 206.803,122.142 208.136,123.809 209.5,125.5C 208.903,125.735 208.57,126.235 208.5,127C 210.331,132.586 211.997,138.086 213.5,143.5C 212.035,144.737 210.368,145.737 208.5,146.5C 207.731,138.919 206.398,131.419 204.5,124C 204.648,122.744 204.982,121.577 205.5,120.5 Z"/></g>
<g><path style="opacity:1" fill="#d5c5cc" d="M 105.5,142.5 C 101.629,142.815 97.9619,142.482 94.5,141.5C 97.5,141.5 100.5,141.5 103.5,141.5C 103.87,132.13 104.704,122.797 106,113.5C 106.212,123.166 106.045,132.832 105.5,142.5 Z"/></g>
<g><path style="opacity:1" fill="#9e7c88" d="M 141.5,155.5 C 141.5,160.5 141.5,165.5 141.5,170.5C 140.662,170.842 140.328,171.508 140.5,172.5C 139.775,168.605 139.109,164.605 138.5,160.5C 138.528,147.78 139.361,135.113 141,122.5C 141.333,125.167 141.667,127.833 142,130.5C 143.528,127.583 144.861,124.583 146,121.5C 146.167,122 146.333,122.5 146.5,123C 141.937,133.343 140.27,144.176 141.5,155.5 Z"/></g>
<g><path style="opacity:1" fill="#cbb2b8" d="M 264.5,172.5 C 263.596,171.791 263.263,170.791 263.5,169.5C 262.669,164.189 261.835,158.855 261,153.5C 260.809,155.708 260.309,157.708 259.5,159.5C 259.334,152.825 259.5,146.158 260,139.5C 260.915,140.328 261.581,141.328 262,142.5C 263.091,152.485 263.924,162.485 264.5,172.5 Z"/></g>
<g><path style="opacity:1" fill="#9f8b95" d="M 94.5,141.5 C 97.9619,142.482 101.629,142.815 105.5,142.5C 108.271,142.421 110.937,142.921 113.5,144C 112.5,144.167 111.5,144.333 110.5,144.5C 102.474,143.199 94.4739,143.199 86.5,144.5C 86.6107,143.883 86.944,143.383 87.5,143C 89.4727,142.505 91.4727,142.338 93.5,142.5C 93.3379,140.473 93.5045,138.473 94,136.5C 94.4935,138.134 94.6602,139.801 94.5,141.5 Z"/></g>
<g><path style="opacity:1" fill="#c6b4bb" d="M 86.5,144.5 C 84.7319,147.162 84.0653,150.162 84.5,153.5C 83.8365,151.958 83.1698,150.291 82.5,148.5C 81.1153,155.459 80.1153,162.459 79.5,169.5C 79.1667,169.5 78.8333,169.5 78.5,169.5C 78.9157,164.507 79.2491,159.507 79.5,154.5C 80.3385,148.485 81.5052,142.485 83,136.5C 83.4974,139.146 83.6641,141.813 83.5,144.5C 84.5,144.5 85.5,144.5 86.5,144.5 Z"/></g>
<g><path style="opacity:1" fill="#fbe4db" d="M 193.5,150.5 C 193.539,151.583 193.873,152.583 194.5,153.5C 191.681,157.881 192.848,160.881 198,162.5C 199.766,161.767 201.599,161.433 203.5,161.5C 208.727,172.849 212.727,184.516 215.5,196.5C 215.31,201.37 214.644,206.036 213.5,210.5C 212.349,212.779 211.349,215.112 210.5,217.5C 210.5,215.833 210.5,214.167 210.5,212.5C 211.788,209.335 211.455,206.168 209.5,203C 210.509,201.832 211.509,200.665 212.5,199.5C 209.576,199.674 206.576,199.341 203.5,198.5C 197.629,195.143 191.296,193.809 184.5,194.5C 184.389,193.883 184.056,193.383 183.5,193C 197.463,193.071 197.796,191.737 184.5,189C 181.833,188.333 179.167,188.333 176.5,189C 174.944,189.72 173.944,190.887 173.5,192.5C 172.71,193.609 172.21,194.942 172,196.5C 170.786,194.951 169.286,193.785 167.5,193C 163.137,192.106 158.804,191.106 154.5,190C 153.244,189.583 152.577,188.75 152.5,187.5C 157.872,182.13 162.872,176.463 167.5,170.5C 175.223,170.8 182.89,170.467 190.5,169.5C 191.583,168.635 191.749,167.635 191,166.5C 187.26,167.794 183.26,168.461 179,168.5C 175.167,168.333 171.333,168.167 167.5,168C 168.949,166.883 170.616,166.216 172.5,166C 193.802,165.497 193.802,164.664 172.5,163.5C 176.841,157.814 179.841,151.481 181.5,144.5C 185.248,147.041 189.248,149.041 193.5,150.5 Z"/></g>
<g><path style="opacity:1" fill="#363b49" d="M 220.5,151.5 C 215.269,154.084 209.935,156.584 204.5,159C 203.748,159.671 203.414,160.504 203.5,161.5C 201.599,161.433 199.766,161.767 198,162.5C 192.848,160.881 191.681,157.881 194.5,153.5C 193.873,152.583 193.539,151.583 193.5,150.5C 194.482,151.141 195.482,151.807 196.5,152.5C 200.553,150.473 204.553,148.473 208.5,146.5C 210.368,145.737 212.035,144.737 213.5,143.5C 220.363,141.827 222.696,144.494 220.5,151.5 Z"/></g>
<g><path style="opacity:1" fill="#caaeb6" d="M 110.5,154.5 C 104.879,153.646 99.2124,153.313 93.5,153.5C 94.9395,151.412 95.6061,149.079 95.5,146.5C 99.5138,146.334 103.514,146.501 107.5,147C 109.055,149.255 110.055,151.755 110.5,154.5 Z"/></g>
<g><path style="opacity:1" fill="#d6ddde" d="M 52.5,70.5 C 51.3228,72.1026 51.4894,73.436 53,74.5C 55.3333,73.1667 57.6667,73.1667 60,74.5C 62.5142,73.9115 64.5142,72.5781 66,70.5C 66.2494,72.668 65.4161,74.3347 63.5,75.5C 63.5654,75.0618 63.3988,74.7284 63,74.5C 60.9993,77.3307 58.8327,79.9974 56.5,82.5C 53.0843,86.3233 50.4176,90.6566 48.5,95.5C 37.9502,111.816 31.9502,129.816 30.5,149.5C 29.8334,157.676 29.1667,166.01 28.5,174.5C 26.5,175.167 24.5,175.833 22.5,176.5C 21.1993,174.556 20.1993,172.556 19.5,170.5C 17.3013,132.56 28.3013,99.227 52.5,70.5 Z"/></g>
<g><path style="opacity:1" fill="#a17a85" d="M 259.5,159.5 C 260.309,157.708 260.809,155.708 261,153.5C 261.835,158.855 262.669,164.189 263.5,169.5C 262.579,172.692 262.412,176.025 263,179.5C 260.746,175.993 258.746,172.327 257,168.5C 256.833,169 256.667,169.5 256.5,170C 258.649,174.463 260.649,178.963 262.5,183.5C 261.833,186.5 261.167,189.5 260.5,192.5C 261.687,184.712 259.353,178.212 253.5,173C 249.316,171.835 246.483,173.335 245,177.5C 244.503,179.81 244.337,182.143 244.5,184.5C 244.167,184.5 243.833,184.5 243.5,184.5C 243.827,175.318 243.493,166.318 242.5,157.5C 241.886,148.815 241.386,140.149 241,131.5C 242.054,141.411 245.388,150.411 251,158.5C 250.805,156.874 250.805,155.207 251,153.5C 252.171,156.35 253.338,159.184 254.5,162C 256.981,162.76 258.647,161.926 259.5,159.5 Z"/></g>
<g><path style="opacity:1" fill="#c79a9b" d="M 193.5,150.5 C 189.248,149.041 185.248,147.041 181.5,144.5C 179.841,151.481 176.841,157.814 172.5,163.5C 193.802,164.664 193.802,165.497 172.5,166C 170.616,166.216 168.949,166.883 167.5,168C 171.333,168.167 175.167,168.333 179,168.5C 183.26,168.461 187.26,167.794 191,166.5C 191.749,167.635 191.583,168.635 190.5,169.5C 182.89,170.467 175.223,170.8 167.5,170.5C 166.552,168.54 166.386,166.54 167,164.5C 166.329,165.252 165.496,165.586 164.5,165.5C 168.635,155.634 172.469,145.634 176,135.5C 178.89,140.569 183.056,143.902 188.5,145.5C 190.833,145.5 193.167,145.5 195.5,145.5C 194.976,141.07 193.976,136.736 192.5,132.5C 192.667,131.833 192.833,131.167 193,130.5C 195.754,136.186 196.921,142.186 196.5,148.5C 194.821,148.285 193.821,148.952 193.5,150.5 Z"/></g>
<g><path style="opacity:1" fill="#fdf4f4" d="M 84.5,153.5 C 85.6409,155.243 87.3076,156.243 89.5,156.5C 93.9907,154.783 98.6574,154.117 103.5,154.5C 103.209,166.217 103.542,177.884 104.5,189.5C 104.5,196.5 104.5,203.5 104.5,210.5C 104.5,212.5 104.5,214.5 104.5,216.5C 97.2531,216.665 90.2531,216.665 83.5,216.5C 82.5778,212.888 81.9111,209.221 81.5,205.5C 79.8361,193.573 79.1695,181.573 79.5,169.5C 80.1153,162.459 81.1153,155.459 82.5,148.5C 83.1698,150.291 83.8365,151.958 84.5,153.5 Z"/></g>
<g><path style="opacity:1" fill="#fdf2f2" d="M 79.5,154.5 C 79.2491,159.507 78.9157,164.507 78.5,169.5C 76.5572,199.462 75.5572,229.462 75.5,259.5C 75.1667,259.5 74.8333,259.5 74.5,259.5C 68.8646,254.697 63.6979,249.363 59,243.5C 58.5172,242.552 58.3505,241.552 58.5,240.5C 59.5327,233.205 60.1994,225.871 60.5,218.5C 61.1667,201.5 61.8333,184.5 62.5,167.5C 62.3367,169.857 62.5034,172.19 63,174.5C 61.9735,168.047 64.4735,163.713 70.5,161.5C 71.1667,159.5 71.8333,157.5 72.5,155.5C 74.4186,155.614 76.4186,156.28 78.5,157.5C 78.2627,156.209 78.596,155.209 79.5,154.5 Z"/></g>
<g><path style="opacity:1" fill="#fdf4f3" d="M 130.5,151.5 C 132.002,153.863 131.668,156.03 129.5,158C 131.88,159.757 134.38,159.923 137,158.5C 137.278,159.416 137.778,160.082 138.5,160.5C 139.109,164.605 139.775,168.605 140.5,172.5C 141.733,183.897 143.4,195.231 145.5,206.5C 138.425,209.272 130.925,210.939 123,211.5C 118.391,210.941 113.558,210.608 108.5,210.5C 107.418,203.511 106.418,196.511 105.5,189.5C 104.762,178.85 104.428,168.183 104.5,157.5C 107.876,157.474 111.042,158.141 114,159.5C 118.631,157.981 123.464,157.148 128.5,157C 130.155,155.556 130.822,153.722 130.5,151.5 Z"/></g>
<g><path style="opacity:1" fill="#9c8490" d="M 128.5,148.5 C 129.906,148.973 130.573,149.973 130.5,151.5C 130.822,153.722 130.155,155.556 128.5,157C 123.464,157.148 118.631,157.981 114,159.5C 111.042,158.141 107.876,157.474 104.5,157.5C 104.428,168.183 104.762,178.85 105.5,189.5C 105.167,189.5 104.833,189.5 104.5,189.5C 103.542,177.884 103.209,166.217 103.5,154.5C 98.6574,154.117 93.9907,154.783 89.5,156.5C 87.3076,156.243 85.6409,155.243 84.5,153.5C 87.5352,154.734 90.5352,154.734 93.5,153.5C 99.2124,153.313 104.879,153.646 110.5,154.5C 112.211,158.575 114.711,159.241 118,156.5C 118.543,153.132 118.376,149.799 117.5,146.5C 120.469,145.671 123.469,145.505 126.5,146C 127.756,146.417 128.423,147.25 128.5,148.5 Z"/></g>
<g><path style="opacity:1" fill="#f8f6f7" d="M 128.5,148.5 C 130.142,156.17 127.142,158.503 119.5,155.5C 119.768,152.881 119.435,150.381 118.5,148C 121.924,147.253 125.257,147.42 128.5,148.5 Z"/></g>
<g><path style="opacity:1" fill="#5f5c69" d="M 53.5,159.5 C 52.9915,163.736 51.9915,167.736 50.5,171.5C 50.6243,166.711 51.4577,162.045 53,157.5C 53.4643,158.094 53.631,158.761 53.5,159.5 Z"/></g>
<g><path style="opacity:1" fill="#a1828e" d="M 220.5,151.5 C 218.202,153.499 215.869,155.499 213.5,157.5C 214.348,159.409 214.682,161.409 214.5,163.5C 214.773,170.504 215.106,177.504 215.5,184.5C 214.026,183.564 213.026,182.23 212.5,180.5C 213.863,173.234 213.53,165.9 211.5,158.5C 208.759,158.707 206.426,159.707 204.5,161.5C 204.167,161.5 203.833,161.5 203.5,161.5C 203.414,160.504 203.748,159.671 204.5,159C 209.935,156.584 215.269,154.084 220.5,151.5 Z"/></g>
<g><path style="opacity:1" fill="#f8f0f1" d="M 212.5,180.5 C 210.612,173.836 207.946,167.503 204.5,161.5C 206.426,159.707 208.759,158.707 211.5,158.5C 213.53,165.9 213.863,173.234 212.5,180.5 Z"/></g>
<g><path style="opacity:1" fill="#fdf4f4" d="M 242.5,157.5 C 243.493,166.318 243.827,175.318 243.5,184.5C 243.655,197.185 243.322,209.851 242.5,222.5C 241.739,223.391 240.739,224.058 239.5,224.5C 234.518,223.337 229.518,222.337 224.5,221.5C 224.993,219.194 225.326,216.861 225.5,214.5C 228.564,211.176 230.397,207.176 231,202.5C 231.667,195.167 231.667,187.833 231,180.5C 228.483,193.252 225.65,205.918 222.5,218.5C 221.127,218.657 219.793,218.49 218.5,218C 217.045,216.374 215.378,215.208 213.5,214.5C 213.5,213.167 213.5,211.833 213.5,210.5C 214.644,206.036 215.31,201.37 215.5,196.5C 215.5,192.5 215.5,188.5 215.5,184.5C 215.106,177.504 214.773,170.504 214.5,163.5C 215.315,164.429 216.148,165.429 217,166.5C 217.576,164.148 219.076,163.148 221.5,163.5C 224.362,166.009 227.695,167.675 231.5,168.5C 231.351,167.448 231.517,166.448 232,165.5C 233.916,170.245 237.416,172.245 242.5,171.5C 242.5,166.833 242.5,162.167 242.5,157.5 Z"/></g>
<g><path style="opacity:1" fill="#c38e95" d="M 141.5,155.5 C 143.075,162.433 145.575,169.099 149,175.5C 149.816,176.823 150.983,177.489 152.5,177.5C 150.188,179.636 147.688,181.636 145,183.5C 142.437,179.584 141.27,175.25 141.5,170.5C 141.5,165.5 141.5,160.5 141.5,155.5 Z"/></g>
<g><path style="opacity:1" fill="#cfbcc2" d="M 53.5,159.5 C 53.631,158.761 53.4643,158.094 53,157.5C 51.4577,162.045 50.6243,166.711 50.5,171.5C 49.0668,175.787 47.5668,180.121 46,184.5C 45.1744,181.207 44.6744,177.874 44.5,174.5C 51.2826,159.896 56.116,144.563 59,128.5C 57.9399,139.051 56.1065,149.385 53.5,159.5 Z"/></g>
<g><path style="opacity:1" fill="#625865" d="M 203.5,161.5 C 203.833,161.5 204.167,161.5 204.5,161.5C 207.946,167.503 210.612,173.836 212.5,180.5C 213.026,182.23 214.026,183.564 215.5,184.5C 215.5,188.5 215.5,192.5 215.5,196.5C 212.727,184.516 208.727,172.849 203.5,161.5 Z"/></g>
<g><path style="opacity:1" fill="#b898a2" d="M 269.5,142.5 C 270.145,152.34 270.145,162.007 269.5,171.5C 268.318,176.399 267.484,182.066 267,188.5C 265.195,183.338 264.362,178.004 264.5,172.5C 265.649,172.209 266.316,171.376 266.5,170C 267.159,167.538 267.493,165.038 267.5,162.5C 268.167,155.833 268.833,149.167 269.5,142.5 Z"/></g>
<g><path style="opacity:1" fill="#d1b1b6" d="M 283.5,164.5 C 281.505,174.818 278.505,184.818 274.5,194.5C 273.417,194.539 272.417,194.873 271.5,195.5C 269.855,191.68 269.189,187.68 269.5,183.5C 269.5,183.167 269.5,182.833 269.5,182.5C 271.463,181.04 273.296,179.373 275,177.5C 277.857,173.102 280.691,168.768 283.5,164.5 Z"/></g>
<g><path style="opacity:1" fill="#d19a97" d="M 244.5,203.5 C 244.5,197.167 244.5,190.833 244.5,184.5C 246.487,181.682 248.987,179.348 252,177.5C 256.578,178.698 258.744,181.698 258.5,186.5C 257.258,195.377 252.591,201.043 244.5,203.5 Z"/></g>
<g><path style="opacity:1" fill="#574957" d="M 263.5,169.5 C 263.263,170.791 263.596,171.791 264.5,172.5C 264.362,178.004 265.195,183.338 267,188.5C 267.484,182.066 268.318,176.399 269.5,171.5C 269.5,175.167 269.5,178.833 269.5,182.5C 269.5,182.833 269.5,183.167 269.5,183.5C 268.276,188.966 267.443,194.633 267,200.5C 266.385,195.094 265.385,189.761 264,184.5C 263.617,183.944 263.117,183.611 262.5,183.5C 260.649,178.963 258.649,174.463 256.5,170C 256.667,169.5 256.833,169 257,168.5C 258.746,172.327 260.746,175.993 263,179.5C 262.412,176.025 262.579,172.692 263.5,169.5 Z"/></g>
<g><path style="opacity:1" fill="#d5a5a1" d="M 184.5,194.5 C 184.672,195.492 184.338,196.158 183.5,196.5C 183.582,194.748 182.749,193.748 181,193.5C 178.681,194.871 176.181,195.538 173.5,195.5C 173.5,194.5 173.5,193.5 173.5,192.5C 173.944,190.887 174.944,189.72 176.5,189C 179.167,188.333 181.833,188.333 184.5,189C 197.796,191.737 197.463,193.071 183.5,193C 184.056,193.383 184.389,193.883 184.5,194.5 Z"/></g>
<g><path style="opacity:0.999" fill="#c5cbcb" d="M 289.5,163.5 C 289.5,167.5 289.5,171.5 289.5,175.5C 291.467,175.261 293.301,175.594 295,176.5C 296.16,174.203 297.16,174.536 298,177.5C 298.191,175.292 298.691,173.292 299.5,171.5C 297.375,200.896 287.042,226.896 268.5,249.5C 267.849,248.909 267.182,248.243 266.5,247.5C 265.914,247.709 265.414,248.043 265,248.5C 262.564,247.645 260.064,246.979 257.5,246.5C 260.915,242.424 263.915,238.091 266.5,233.5C 267.338,233.158 267.672,232.492 267.5,231.5C 269.433,230.358 270.933,228.692 272,226.5C 276.929,217.529 280.762,208.195 283.5,198.5C 284.434,197.432 284.768,196.099 284.5,194.5C 287.527,184.368 289.194,174.034 289.5,163.5 Z"/></g>
<g><path style="opacity:1" fill="#cea8ad" d="M 284.5,194.5 C 284.768,196.099 284.434,197.432 283.5,198.5C 281.801,198.34 280.134,198.506 278.5,199C 276.266,201.063 274.266,203.229 272.5,205.5C 274.048,199.187 276.382,193.187 279.5,187.5C 281.9,189.296 283.567,191.63 284.5,194.5 Z"/></g>
<g><path style="opacity:1" fill="#543e48" d="M 184.5,194.5 C 191.296,193.809 197.629,195.143 203.5,198.5C 205.119,200.925 204.786,202.925 202.5,204.5C 199.934,200.639 196.267,198.973 191.5,199.5C 187.03,198.913 183.363,200.246 180.5,203.5C 177.337,204.321 174.67,205.988 172.5,208.5C 171.893,208.376 171.56,208.043 171.5,207.5C 173.604,201.728 177.604,198.061 183.5,196.5C 184.338,196.158 184.672,195.492 184.5,194.5 Z"/></g>
<g><path style="opacity:1" fill="#c5b4ba" d="M 62.5,167.5 C 61.8333,184.5 61.1667,201.5 60.5,218.5C 60.5,214.167 60.5,209.833 60.5,205.5C 60.8222,199.642 60.4889,193.975 59.5,188.5C 60.2467,176.858 60.7467,165.192 61,153.5C 61.7745,149.853 62.4412,146.186 63,142.5C 63.4579,150.843 63.2912,159.176 62.5,167.5 Z"/></g>
<g><path style="opacity:1" fill="#c69ca2" d="M 262.5,183.5 C 263.117,183.611 263.617,183.944 264,184.5C 265.385,189.761 266.385,195.094 267,200.5C 267.443,194.633 268.276,188.966 269.5,183.5C 269.189,187.68 269.855,191.68 271.5,195.5C 272.417,194.873 273.417,194.539 274.5,194.5C 273.651,198.533 271.984,202.199 269.5,205.5C 268.749,204.624 268.249,203.624 268,202.5C 267.829,210.591 266.995,218.591 265.5,226.5C 258.253,223.588 252.92,218.588 249.5,211.5C 253.967,205.558 257.634,199.224 260.5,192.5C 261.167,189.5 261.833,186.5 262.5,183.5 Z"/></g>
<g><path style="opacity:1" fill="#f9f0f0" d="M 283.5,198.5 C 280.762,208.195 276.929,217.529 272,226.5C 270.933,228.692 269.433,230.358 267.5,231.5C 267.07,222.45 268.736,213.783 272.5,205.5C 274.266,203.229 276.266,201.063 278.5,199C 280.134,198.506 281.801,198.34 283.5,198.5 Z"/></g>
<g><path style="opacity:1" fill="#f9ddd4" d="M 260.5,192.5 C 257.634,199.224 253.967,205.558 249.5,211.5C 248.194,213.473 246.527,215.139 244.5,216.5C 244.5,212.167 244.5,207.833 244.5,203.5C 252.591,201.043 257.258,195.377 258.5,186.5C 258.744,181.698 256.578,178.698 252,177.5C 248.987,179.348 246.487,181.682 244.5,184.5C 244.337,182.143 244.503,179.81 245,177.5C 246.483,173.335 249.316,171.835 253.5,173C 259.353,178.212 261.687,184.712 260.5,192.5 Z"/></g>
<g><path style="opacity:1" fill="#333946" d="M 202.5,204.5 C 202.557,205.609 202.89,206.609 203.5,207.5C 200.785,209.072 197.785,210.072 194.5,210.5C 194.949,212.977 194.283,214.977 192.5,216.5C 190.218,214.454 187.551,213.454 184.5,213.5C 187.027,209.016 185.693,207.349 180.5,208.5C 179.506,207.001 179.506,205.334 180.5,203.5C 183.363,200.246 187.03,198.913 191.5,199.5C 196.267,198.973 199.934,200.639 202.5,204.5 Z"/></g>
<g><path style="opacity:1" fill="#d4b7bb" d="M 225.5,214.5 C 224.359,217.254 223.025,219.921 221.5,222.5C 221.433,221.041 221.766,219.708 222.5,218.5C 225.65,205.918 228.483,193.252 231,180.5C 231.667,187.833 231.667,195.167 231,202.5C 230.397,207.176 228.564,211.176 225.5,214.5 Z"/></g>
<g><path style="opacity:1" fill="#b38a94" d="M 59.5,188.5 C 60.4889,193.975 60.8222,199.642 60.5,205.5C 59.5883,214.006 58.7549,222.673 58,231.5C 56.7641,224.544 54.9307,217.878 52.5,211.5C 55.6032,204.092 57.9365,196.425 59.5,188.5 Z"/></g>
<g><path style="opacity:1" fill="#c48480" d="M 180.5,203.5 C 179.506,205.334 179.506,207.001 180.5,208.5C 179.167,209.833 179.167,211.167 180.5,212.5C 180.5,213.5 180.5,214.5 180.5,215.5C 177.833,215.833 175.167,216.167 172.5,216.5C 172.663,214.143 172.497,211.81 172,209.5C 171.111,210.888 170.611,210.722 170.5,209C 170.57,208.235 170.903,207.735 171.5,207.5C 171.56,208.043 171.893,208.376 172.5,208.5C 174.67,205.988 177.337,204.321 180.5,203.5 Z"/></g>
<g><path style="opacity:1" fill="#885e5f" d="M 203.5,198.5 C 206.576,199.341 209.576,199.674 212.5,199.5C 211.509,200.665 210.509,201.832 209.5,203C 211.455,206.168 211.788,209.335 210.5,212.5C 210.5,211.833 210.167,211.5 209.5,211.5C 209.033,208.703 207.367,207.369 204.5,207.5C 204.167,207.5 203.833,207.5 203.5,207.5C 202.89,206.609 202.557,205.609 202.5,204.5C 204.786,202.925 205.119,200.925 203.5,198.5 Z"/></g>
<g><path style="opacity:1" fill="#464150" d="M 104.5,189.5 C 104.833,189.5 105.167,189.5 105.5,189.5C 106.418,196.511 107.418,203.511 108.5,210.5C 109.442,214.418 110.108,218.418 110.5,222.5C 109.5,222.5 108.5,222.5 107.5,222.5C 107.565,222.062 107.399,221.728 107,221.5C 106.722,222.416 106.222,223.082 105.5,223.5C 105.818,218.968 105.485,214.634 104.5,210.5C 104.5,203.5 104.5,196.5 104.5,189.5 Z"/></g>
<g><path style="opacity:1" fill="#fce5e5" d="M 145.5,206.5 C 146.945,209.937 147.945,213.603 148.5,217.5C 149.13,219.75 150.13,221.75 151.5,223.5C 152.546,228.596 154.879,232.929 158.5,236.5C 159.048,238.394 160.048,240.06 161.5,241.5C 159.067,243.054 156.4,243.72 153.5,243.5C 151.552,242.869 149.719,241.869 148,240.5C 147.296,242.727 146.129,243.06 144.5,241.5C 138.042,232.975 134.208,223.308 133,212.5C 133.508,222.693 135.675,232.526 139.5,242C 133.505,243.119 127.505,243.786 121.5,244C 118.642,242.306 116.309,240.139 114.5,237.5C 113.319,232.441 111.986,227.441 110.5,222.5C 110.108,218.418 109.442,214.418 108.5,210.5C 113.558,210.608 118.391,210.941 123,211.5C 130.925,210.939 138.425,209.272 145.5,206.5 Z"/></g>
<g><path style="opacity:1" fill="#b47c83" d="M 249.5,211.5 C 251.317,216.337 251.817,221.337 251,226.5C 248.926,236.555 245.759,246.222 241.5,255.5C 240.842,254.207 240.508,252.707 240.5,251C 242.286,239.546 243.619,228.046 244.5,216.5C 246.527,215.139 248.194,213.473 249.5,211.5 Z"/></g>
<g><path style="opacity:1" fill="#403f4d" d="M 60.5,205.5 C 60.5,209.833 60.5,214.167 60.5,218.5C 60.1994,225.871 59.5327,233.205 58.5,240.5C 53.8486,235.871 50.1819,230.537 47.5,224.5C 48.9718,220.083 50.6385,215.75 52.5,211.5C 54.9307,217.878 56.7641,224.544 58,231.5C 58.7549,222.673 59.5883,214.006 60.5,205.5 Z"/></g>
<g><path style="opacity:1" fill="#fbe6e6" d="M 104.5,210.5 C 105.485,214.634 105.818,218.968 105.5,223.5C 105.968,230.777 106.968,237.943 108.5,245C 107.101,245.595 105.768,245.428 104.5,244.5C 102.867,240.304 101.701,235.971 101,231.5C 100.721,235.17 100.888,238.837 101.5,242.5C 99.139,242.326 96.8056,241.993 94.5,241.5C 94.5,240.833 94.1667,240.5 93.5,240.5C 91.8297,240.249 90.3297,239.582 89,238.5C 86.5929,231.294 84.7595,223.961 83.5,216.5C 90.2531,216.665 97.2531,216.665 104.5,216.5C 104.5,214.5 104.5,212.5 104.5,210.5 Z"/></g>
<g><path style="opacity:1" fill="#c3a0a7" d="M 78.5,169.5 C 78.8333,169.5 79.1667,169.5 79.5,169.5C 79.1695,181.573 79.8361,193.573 81.5,205.5C 80.5033,208.005 80.5033,210.672 81.5,213.5C 79.8706,211.94 78.704,212.273 78,214.5C 77.2735,229.828 76.7735,245.161 76.5,260.5C 75.8333,260.5 75.5,260.167 75.5,259.5C 75.5572,229.462 76.5572,199.462 78.5,169.5 Z"/></g>
<g><path style="opacity:1" fill="#c2c7c8" d="M 30.5,149.5 C 29.1238,169.783 31.9571,189.45 39,208.5C 39.4169,209.756 40.2502,210.423 41.5,210.5C 40.5876,211.738 40.4209,213.072 41,214.5C 42.4596,218.453 44.6263,221.786 47.5,224.5C 50.1819,230.537 53.8486,235.871 58.5,240.5C 58.3505,241.552 58.5172,242.552 59,243.5C 63.6979,249.363 68.8646,254.697 74.5,259.5C 72.9826,259.489 71.8159,258.823 71,257.5C 70.0411,259.658 68.5411,259.991 66.5,258.5C 64.664,259.396 62.9974,260.396 61.5,261.5C 35.9688,236.609 21.9688,206.275 19.5,170.5C 20.1993,172.556 21.1993,174.556 22.5,176.5C 24.5,175.833 26.5,175.167 28.5,174.5C 29.1667,166.01 29.8334,157.676 30.5,149.5 Z"/></g>
<g><path style="opacity:1" fill="#dcaca8" d="M 167.5,170.5 C 162.872,176.463 157.872,182.13 152.5,187.5C 149.296,190.758 147.629,194.758 147.5,199.5C 148.328,211.503 153.661,221.003 163.5,228C 166.702,229.763 169.702,231.763 172.5,234C 172.312,235.882 171.312,237.048 169.5,237.5C 165.88,236.181 162.546,234.681 159.5,233C 161.705,235.54 164.205,237.707 167,239.5C 167.793,243.046 166.293,244.88 162.5,245C 157.833,245.667 153.167,245.667 148.5,245C 146.456,244.502 145.122,243.335 144.5,241.5C 146.129,243.06 147.296,242.727 148,240.5C 149.719,241.869 151.552,242.869 153.5,243.5C 155.029,244.636 157.362,244.802 160.5,244C 161.672,243.581 162.672,242.915 163.5,242C 162.336,239.672 160.67,237.838 158.5,236.5C 156.417,232 154.084,227.666 151.5,223.5C 150.13,221.75 149.13,219.75 148.5,217.5C 149.124,217.083 149.457,216.416 149.5,215.5C 146.224,206.07 145.057,196.404 146,186.5C 149.721,182.289 153.721,178.289 158,174.5C 160.417,171.598 162.584,168.598 164.5,165.5C 165.496,165.586 166.329,165.252 167,164.5C 166.386,166.54 166.552,168.54 167.5,170.5 Z"/></g>
<g><path style="opacity:1" fill="#7d6870" d="M 213.5,210.5 C 213.5,211.833 213.5,213.167 213.5,214.5C 212.007,220.489 209.674,226.156 206.5,231.5C 208.032,226.903 209.365,222.236 210.5,217.5C 211.349,215.112 212.349,212.779 213.5,210.5 Z"/></g>
<g><path style="opacity:1" fill="#7d686d" d="M 151.5,223.5 C 154.084,227.666 156.417,232 158.5,236.5C 154.879,232.929 152.546,228.596 151.5,223.5 Z"/></g>
<g><path style="opacity:1" fill="#f9e0e1" d="M 213.5,214.5 C 215.378,215.208 217.045,216.374 218.5,218C 219.793,218.49 221.127,218.657 222.5,218.5C 221.766,219.708 221.433,221.041 221.5,222.5C 217.514,230.456 212.514,237.789 206.5,244.5C 204.463,245.846 202.463,247.18 200.5,248.5C 194.696,250.652 189.696,249.652 185.5,245.5C 185.351,244.448 185.517,243.448 186,242.5C 188.178,244.924 190.845,246.59 194,247.5C 195.642,247.022 196.809,246.022 197.5,244.5C 200.886,242.433 203.219,239.433 204.5,235.5C 206.176,234.817 206.843,233.483 206.5,231.5C 209.674,226.156 212.007,220.489 213.5,214.5 Z"/></g>
<g><path style="opacity:1" fill="#878486" d="M 107.5,222.5 C 108.5,222.5 109.5,222.5 110.5,222.5C 111.986,227.441 113.319,232.441 114.5,237.5C 113.5,237.167 112.833,236.5 112.5,235.5C 112.435,233.304 111.768,231.304 110.5,229.5C 108.889,230.32 108.222,231.654 108.5,233.5C 107.518,230.038 107.185,226.371 107.5,222.5 Z"/></g>
<g><path style="opacity:1" fill="#fbcabe" d="M 209.5,211.5 C 210.167,211.5 210.5,211.833 210.5,212.5C 210.5,214.167 210.5,215.833 210.5,217.5C 209.365,222.236 208.032,226.903 206.5,231.5C 206.843,233.483 206.176,234.817 204.5,235.5C 201.815,238.19 199.482,241.19 197.5,244.5C 195.545,245.323 193.545,245.49 191.5,245C 188.58,243.054 185.913,240.887 183.5,238.5C 183.963,235.518 184.296,232.518 184.5,229.5C 198.458,231.198 206.792,225.198 209.5,211.5 Z"/></g>
<g><path style="opacity:1" fill="#badacb" d="M 112.5,235.5 C 111.041,235.567 109.708,235.234 108.5,234.5C 108.5,234.167 108.5,233.833 108.5,233.5C 108.222,231.654 108.889,230.32 110.5,229.5C 111.768,231.304 112.435,233.304 112.5,235.5 Z"/></g>
<g><path style="opacity:1" fill="#c99a9f" d="M 266.5,233.5 C 263.915,238.091 260.915,242.424 257.5,246.5C 255.821,246.285 254.821,246.952 254.5,248.5C 252.981,245.474 252.315,242.141 252.5,238.5C 251.803,233.646 253.137,229.479 256.5,226C 261.345,226.329 264.678,228.829 266.5,233.5 Z"/></g>
<g><path style="opacity:1" fill="#725b66" d="M 81.5,205.5 C 81.9111,209.221 82.5778,212.888 83.5,216.5C 84.7595,223.961 86.5929,231.294 89,238.5C 90.3297,239.582 91.8297,240.249 93.5,240.5C 93.5,241.833 93.5,243.167 93.5,244.5C 92.5416,244.047 91.7083,243.381 91,242.5C 90.5357,243.094 90.369,243.761 90.5,244.5C 88.9235,241.648 87.4235,238.648 86,235.5C 84.3907,228.174 82.8907,220.841 81.5,213.5C 80.5033,210.672 80.5033,208.005 81.5,205.5 Z"/></g>
<g><path style="opacity:1" fill="#fce2e2" d="M 225.5,214.5 C 225.326,216.861 224.993,219.194 224.5,221.5C 229.518,222.337 234.518,223.337 239.5,224.5C 240.739,224.058 241.739,223.391 242.5,222.5C 241.364,233.533 240.03,244.533 238.5,255.5C 238.326,257.861 237.993,260.194 237.5,262.5C 236.802,264.705 235.468,266.539 233.5,268C 232.184,268.528 231.517,268.028 231.5,266.5C 232.068,260.166 232.234,253.833 232,247.5C 230.688,255.225 229.188,262.892 227.5,270.5C 224.563,273.915 220.896,276.415 216.5,278C 212.5,279.667 208.5,281.333 204.5,283C 202.934,283.765 201.601,283.598 200.5,282.5C 201.11,281.609 201.443,280.609 201.5,279.5C 204.698,276.105 206.531,272.105 207,267.5C 206.333,268.833 205.667,270.167 205,271.5C 204.536,270.906 204.369,270.239 204.5,269.5C 205.225,263.086 206.225,256.753 207.5,250.5C 208.15,250.196 208.817,249.863 209.5,249.5C 210.321,252.447 210.821,255.447 211,258.5C 212.811,254.012 213.811,249.346 214,244.5C 217.601,237.53 220.101,230.197 221.5,222.5C 223.025,219.921 224.359,217.254 225.5,214.5 Z"/></g>
<g><path style="opacity:1" fill="#fbe1e1" d="M 81.5,213.5 C 82.8907,220.841 84.3907,228.174 86,235.5C 87.4235,238.648 88.9235,241.648 90.5,244.5C 92.27,252.78 93.9366,261.114 95.5,269.5C 95.7208,274.062 94.2208,274.728 91,271.5C 90.6397,269.579 89.8064,267.912 88.5,266.5C 87.8333,267.167 87.1667,267.833 86.5,268.5C 82.8346,266.159 79.5012,263.493 76.5,260.5C 76.7735,245.161 77.2735,229.828 78,214.5C 78.704,212.273 79.8706,211.94 81.5,213.5 Z"/></g>
<g><path style="opacity:1" fill="#685760" d="M 158.5,236.5 C 160.67,237.838 162.336,239.672 163.5,242C 162.672,242.915 161.672,243.581 160.5,244C 157.362,244.802 155.029,244.636 153.5,243.5C 156.4,243.72 159.067,243.054 161.5,241.5C 160.048,240.06 159.048,238.394 158.5,236.5 Z"/></g>
<g><path style="opacity:1" fill="#6d5a64" d="M 107.5,222.5 C 107.185,226.371 107.518,230.038 108.5,233.5C 108.5,233.833 108.5,234.167 108.5,234.5C 108.646,238.519 108.979,242.519 109.5,246.5C 103.956,246.208 98.9563,244.541 94.5,241.5C 96.8056,241.993 99.139,242.326 101.5,242.5C 100.888,238.837 100.721,235.17 101,231.5C 101.701,235.971 102.867,240.304 104.5,244.5C 105.768,245.428 107.101,245.595 108.5,245C 106.968,237.943 105.968,230.777 105.5,223.5C 106.222,223.082 106.722,222.416 107,221.5C 107.399,221.728 107.565,222.062 107.5,222.5 Z"/></g>
<g><path style="opacity:1" fill="#846e77" d="M 204.5,235.5 C 203.219,239.433 200.886,242.433 197.5,244.5C 199.482,241.19 201.815,238.19 204.5,235.5 Z"/></g>
<g><path style="opacity:1" fill="#b47980" d="M 221.5,222.5 C 220.101,230.197 217.601,237.53 214,244.5C 213.811,249.346 212.811,254.012 211,258.5C 210.821,255.447 210.321,252.447 209.5,249.5C 208.817,249.863 208.15,250.196 207.5,250.5C 207.795,248.265 207.461,246.265 206.5,244.5C 212.514,237.789 217.514,230.456 221.5,222.5 Z"/></g>
<g><path style="opacity:1" fill="#6c5d68" d="M 243.5,184.5 C 243.833,184.5 244.167,184.5 244.5,184.5C 244.5,190.833 244.5,197.167 244.5,203.5C 244.5,207.833 244.5,212.167 244.5,216.5C 243.619,228.046 242.286,239.546 240.5,251C 240.508,252.707 240.842,254.207 241.5,255.5C 240.472,258.098 239.472,258.098 238.5,255.5C 240.03,244.533 241.364,233.533 242.5,222.5C 243.322,209.851 243.655,197.185 243.5,184.5 Z"/></g>
<g><path style="opacity:1" fill="#78656f" d="M 144.5,241.5 C 142.871,240.375 141.371,239.041 140,237.5C 139.421,238.928 139.588,240.262 140.5,241.5C 140.03,242.693 139.03,243.36 137.5,243.5C 133.197,244.428 128.864,245.094 124.5,245.5C 118.46,246.12 115.126,243.453 114.5,237.5C 116.309,240.139 118.642,242.306 121.5,244C 127.505,243.786 133.505,243.119 139.5,242C 135.675,232.526 133.508,222.693 133,212.5C 134.208,223.308 138.042,232.975 144.5,241.5 Z"/></g>
<g><path style="opacity:1" fill="#fde3d8" d="M 152.5,187.5 C 152.577,188.75 153.244,189.583 154.5,190C 158.804,191.106 163.137,192.106 167.5,193C 169.286,193.785 170.786,194.951 172,196.5C 172.21,194.942 172.71,193.609 173.5,192.5C 173.5,193.5 173.5,194.5 173.5,195.5C 176.181,195.538 178.681,194.871 181,193.5C 182.749,193.748 183.582,194.748 183.5,196.5C 177.604,198.061 173.604,201.728 171.5,207.5C 170.903,207.735 170.57,208.235 170.5,209C 170.611,210.722 171.111,210.888 172,209.5C 172.497,211.81 172.663,214.143 172.5,216.5C 175.167,216.167 177.833,215.833 180.5,215.5C 182.941,217.03 184.108,219.363 184,222.5C 185.039,223.71 186.206,224.71 187.5,225.5C 193.769,228.001 198.436,226.334 201.5,220.5C 204.161,216.69 205.161,212.356 204.5,207.5C 207.367,207.369 209.033,208.703 209.5,211.5C 206.792,225.198 198.458,231.198 184.5,229.5C 184.296,232.518 183.963,235.518 183.5,238.5C 183.171,241.228 183.837,243.562 185.5,245.5C 185.511,247.017 186.177,248.184 187.5,249C 186.377,250.044 185.044,250.71 183.5,251C 187.152,251.499 190.818,251.665 194.5,251.5C 193.775,252.97 192.109,254.136 189.5,255C 195.247,256.166 200.581,255.332 205.5,252.5C 204.979,258.293 203.812,263.96 202,269.5C 201.004,271.66 199.504,273.327 197.5,274.5C 189.967,279.762 182.301,284.762 174.5,289.5C 162.433,291.069 150.433,290.736 138.5,288.5C 134.01,286.235 129.344,284.068 124.5,282C 121.01,279.089 117.344,276.422 113.5,274C 110.882,271.894 108.882,269.394 107.5,266.5C 111.937,264.065 116.604,261.899 121.5,260C 124.335,255.999 127.668,252.499 131.5,249.5C 135.824,249.073 140.158,248.739 144.5,248.5C 144.002,245.674 142.669,243.34 140.5,241.5C 139.588,240.262 139.421,238.928 140,237.5C 141.371,239.041 142.871,240.375 144.5,241.5C 145.122,243.335 146.456,244.502 148.5,245C 153.167,245.667 157.833,245.667 162.5,245C 166.293,244.88 167.793,243.046 167,239.5C 164.205,237.707 161.705,235.54 159.5,233C 162.546,234.681 165.88,236.181 169.5,237.5C 171.312,237.048 172.312,235.882 172.5,234C 169.702,231.763 166.702,229.763 163.5,228C 153.661,221.003 148.328,211.503 147.5,199.5C 147.629,194.758 149.296,190.758 152.5,187.5 Z"/></g>
<g><path style="opacity:1" fill="#c7e7da" d="M 201.5,220.5 C 198.436,226.334 193.769,228.001 187.5,225.5C 188.436,220.568 191.436,218.235 196.5,218.5C 198.64,218.556 200.306,219.223 201.5,220.5 Z"/></g>
<g><path style="opacity:1" fill="#9da29f" d="M 203.5,207.5 C 203.833,207.5 204.167,207.5 204.5,207.5C 205.161,212.356 204.161,216.69 201.5,220.5C 200.306,219.223 198.64,218.556 196.5,218.5C 191.436,218.235 188.436,220.568 187.5,225.5C 186.206,224.71 185.039,223.71 184,222.5C 184.108,219.363 182.941,217.03 180.5,215.5C 180.5,214.5 180.5,213.5 180.5,212.5C 181.708,213.234 183.041,213.567 184.5,213.5C 187.551,213.454 190.218,214.454 192.5,216.5C 194.283,214.977 194.949,212.977 194.5,210.5C 197.785,210.072 200.785,209.072 203.5,207.5 Z"/></g>
<g><path style="opacity:1" fill="#ece7e7" d="M 184.5,213.5 C 183.041,213.567 181.708,213.234 180.5,212.5C 179.167,211.167 179.167,209.833 180.5,208.5C 185.693,207.349 187.027,209.016 184.5,213.5 Z"/></g>
<g><path style="opacity:1" fill="#8b757d" d="M 183.5,238.5 C 185.913,240.887 188.58,243.054 191.5,245C 193.545,245.49 195.545,245.323 197.5,244.5C 196.809,246.022 195.642,247.022 194,247.5C 190.845,246.59 188.178,244.924 186,242.5C 185.517,243.448 185.351,244.448 185.5,245.5C 183.837,243.562 183.171,241.228 183.5,238.5 Z"/></g>
<g><path style="opacity:1" fill="#e1a9a3" d="M 140.5,241.5 C 142.669,243.34 144.002,245.674 144.5,248.5C 140.158,248.739 135.824,249.073 131.5,249.5C 127.817,250.32 125.483,248.987 124.5,245.5C 128.864,245.094 133.197,244.428 137.5,243.5C 139.03,243.36 140.03,242.693 140.5,241.5 Z"/></g>
<g><path style="opacity:1" fill="#3a3a49" d="M 93.5,244.5 C 97.34,253.178 101.84,261.511 107,269.5C 113.064,275.072 119.231,280.405 125.5,285.5C 115.125,283.543 105.625,279.543 97,273.5C 96.79,271.942 96.29,270.609 95.5,269.5C 93.9366,261.114 92.27,252.78 90.5,244.5C 90.369,243.761 90.5357,243.094 91,242.5C 91.7083,243.381 92.5416,244.047 93.5,244.5 Z"/></g>
<g><path style="opacity:1" fill="#fbcfc3" d="M 108.5,234.5 C 109.708,235.234 111.041,235.567 112.5,235.5C 112.833,236.5 113.5,237.167 114.5,237.5C 115.126,243.453 118.46,246.12 124.5,245.5C 125.483,248.987 127.817,250.32 131.5,249.5C 127.668,252.499 124.335,255.999 121.5,260C 116.604,261.899 111.937,264.065 107.5,266.5C 102.833,259.167 98.1667,251.833 93.5,244.5C 93.5,243.167 93.5,241.833 93.5,240.5C 94.1667,240.5 94.5,240.833 94.5,241.5C 98.9563,244.541 103.956,246.208 109.5,246.5C 108.979,242.519 108.646,238.519 108.5,234.5 Z"/></g>
<g><path style="opacity:1" fill="#8e737b" d="M 185.5,245.5 C 189.696,249.652 194.696,250.652 200.5,248.5C 198.629,249.797 196.629,250.797 194.5,251.5C 190.818,251.665 187.152,251.499 183.5,251C 185.044,250.71 186.377,250.044 187.5,249C 186.177,248.184 185.511,247.017 185.5,245.5 Z"/></g>
<g><path style="opacity:1" fill="#e4aba4" d="M 205.5,252.5 C 200.581,255.332 195.247,256.166 189.5,255C 192.109,254.136 193.775,252.97 194.5,251.5C 196.629,250.797 198.629,249.797 200.5,248.5C 202.582,248.528 204.416,247.861 206,246.5C 206.18,248.488 206.014,250.488 205.5,252.5 Z"/></g>
<g><path style="opacity:1" fill="#915458" d="M 93.5,244.5 C 98.1667,251.833 102.833,259.167 107.5,266.5C 108.882,269.394 110.882,271.894 113.5,274C 117.344,276.422 121.01,279.089 124.5,282C 129.344,284.068 134.01,286.235 138.5,288.5C 133.923,288.075 129.59,287.075 125.5,285.5C 119.231,280.405 113.064,275.072 107,269.5C 101.84,261.511 97.34,253.178 93.5,244.5 Z"/></g>
<g><path style="opacity:1" fill="#4b4654" d="M 231.5,266.5 C 230.792,268.378 229.626,270.045 228,271.5C 227.601,271.272 227.435,270.938 227.5,270.5C 229.188,262.892 230.688,255.225 232,247.5C 232.234,253.833 232.068,260.166 231.5,266.5 Z"/></g>
<g><path style="opacity:1" fill="#bcbdbd" d="M 257.5,246.5 C 260.064,246.979 262.564,247.645 265,248.5C 265.414,248.043 265.914,247.709 266.5,247.5C 267.182,248.243 267.849,248.909 268.5,249.5C 235.464,288.807 193.13,305.974 141.5,301C 110.351,296.591 83.6842,283.425 61.5,261.5C 62.9974,260.396 64.664,259.396 66.5,258.5C 68.5411,259.991 70.0411,259.658 71,257.5C 71.8159,258.823 72.9826,259.489 74.5,259.5C 74.8333,259.5 75.1667,259.5 75.5,259.5C 75.5,260.167 75.8333,260.5 76.5,260.5C 79.5012,263.493 82.8346,266.159 86.5,268.5C 87.1667,267.833 87.8333,267.167 88.5,266.5C 89.8064,267.912 90.6397,269.579 91,271.5C 94.2208,274.728 95.7208,274.062 95.5,269.5C 96.29,270.609 96.79,271.942 97,273.5C 105.625,279.543 115.125,283.543 125.5,285.5C 129.59,287.075 133.923,288.075 138.5,288.5C 150.433,290.736 162.433,291.069 174.5,289.5C 181.157,289.118 187.491,287.785 193.5,285.5C 196.491,285.834 198.824,284.834 200.5,282.5C 201.601,283.598 202.934,283.765 204.5,283C 208.5,281.333 212.5,279.667 216.5,278C 220.896,276.415 224.563,273.915 227.5,270.5C 227.435,270.938 227.601,271.272 228,271.5C 229.626,270.045 230.792,268.378 231.5,266.5C 231.517,268.028 232.184,268.528 233.5,268C 235.468,266.539 236.802,264.705 237.5,262.5C 237.369,263.239 237.536,263.906 238,264.5C 244.003,259.663 249.503,254.33 254.5,248.5C 254.821,246.952 255.821,246.285 257.5,246.5 Z"/></g>
<g><path style="opacity:1" fill="#4a4351" d="M 206.5,244.5 C 207.461,246.265 207.795,248.265 207.5,250.5C 206.225,256.753 205.225,263.086 204.5,269.5C 202.975,272.583 201.975,275.916 201.5,279.5C 201.443,280.609 201.11,281.609 200.5,282.5C 198.824,284.834 196.491,285.834 193.5,285.5C 194.001,281.505 195.334,277.838 197.5,274.5C 199.504,273.327 201.004,271.66 202,269.5C 203.812,263.96 204.979,258.293 205.5,252.5C 206.014,250.488 206.18,248.488 206,246.5C 204.416,247.861 202.582,248.528 200.5,248.5C 202.463,247.18 204.463,245.846 206.5,244.5 Z"/></g>
<g><path style="opacity:1" fill="#bc989f" d="M 201.5,279.5 C 201.975,275.916 202.975,272.583 204.5,269.5C 204.369,270.239 204.536,270.906 205,271.5C 205.667,270.167 206.333,268.833 207,267.5C 206.531,272.105 204.698,276.105 201.5,279.5 Z"/></g>
<g><path style="opacity:1" fill="#ab696e" d="M 197.5,274.5 C 195.334,277.838 194.001,281.505 193.5,285.5C 187.491,287.785 181.157,289.118 174.5,289.5C 182.301,284.762 189.967,279.762 197.5,274.5 Z"/></g>
</svg>
